<?xml version="1.0" encoding="UTF-8" standalone="no"?>
<!DOCTYPE svg PUBLIC "-//W3C//DTD SVG 1.1//EN" "http://www.w3.org/Graphics/SVG/1.1/DTD/svg11.dtd">
<svg xmlns="http://www.w3.org/2000/svg" version="1.1" viewBox="0.00 0.00 612.00 612.00">
<path fill="#0167a2" d="
  M 318.25 170.42
  Q 319.62 169.54 321.67 170.15
  A 0.75 0.75 0.0 0 1 322.20 170.87
  L 322.20 180.67
  A 2.05 2.05 0.0 0 1 321.31 182.36
  L 303.15 194.72
  A 0.97 0.97 0.0 0 0 302.74 195.51
  L 302.74 196.94
  A 0.73 0.72 0.0 0 1 302.01 197.66
  L 301.36 197.66
  A 0.73 0.73 0.0 0 1 300.63 196.93
  L 300.63 194.59
  A 1.38 1.36 -17.4 0 1 301.23 193.46
  L 319.55 180.98
  A 1.30 1.27 73.3 0 0 320.11 179.91
  L 320.11 172.88
  A 0.78 0.76 -80.4 0 0 319.60 172.15
  L 318.24 171.67
  A 0.35 0.35 0.0 0 0 317.78 172.00
  L 317.78 176.95
  A 0.41 0.40 -0.0 0 1 317.37 177.35
  L 275.91 177.35
  A 0.66 0.65 0.0 0 1 275.25 176.70
  L 275.25 164.92
  A 0.45 0.45 0.0 0 1 275.70 164.47
  L 317.27 164.47
  A 0.58 0.57 90.0 0 1 317.84 165.05
  L 317.84 170.20
  A 0.27 0.26 -16.4 0 0 318.25 170.42
  Z"
/>
<path fill="#0167a2" d="
  M 459.43 359.70
  A 0.19 0.19 0.0 0 1 459.59 359.91
  L 459.56 360.22
  A 0.24 0.24 0.0 0 1 459.31 360.43
  Q 436.46 360.17 145.76 360.33
  Q 133.62 360.34 132.39 360.13
  Q 135.62 359.40 137.84 359.12
  Q 150.43 357.51 162.56 356.42
  A 0.59 0.59 0.0 0 0 163.09 355.87
  L 163.89 344.75
  A 0.47 0.47 0.0 0 0 163.23 344.28
  L 162.82 344.46
  A 1.13 1.11 -41.1 0 1 161.80 344.40
  Q 149.94 337.42 148.28 336.47
  Q 145.32 334.77 145.10 333.77
  A 0.48 0.47 10.3 0 0 144.87 333.45
  L 116.67 316.96
  A 2.34 2.27 -3.4 0 1 116.02 316.40
  C 113.81 313.64 111.95 312.05 112.81 308.56
  C 113.66 305.07 116.92 303.81 120.25 304.56
  Q 121.22 304.78 122.63 304.89
  A 2.56 2.49 61.7 0 1 123.77 305.25
  L 150.70 321.11
  A 1.02 0.90 82.1 0 1 150.98 321.35
  L 151.51 322.06
  A 0.54 0.54 0.0 0 0 152.21 322.20
  L 153.68 321.34
  A 0.74 0.72 81.7 0 0 154.03 320.86
  L 155.31 314.80
  A 0.72 0.71 -78.1 0 1 156.15 314.25
  L 164.95 316.12
  A 0.85 0.85 0.0 0 1 165.60 317.13
  L 165.43 317.95
  A 0.78 0.78 0.0 0 1 164.51 318.55
  L 158.01 317.17
  A 0.71 0.70 -77.8 0 0 157.17 317.72
  L 156.76 319.63
  A 0.53 0.52 -84.7 0 0 157.28 320.26
  C 161.60 320.19 163.52 323.57 167.12 323.94
  A 0.44 0.43 -76.5 0 0 167.58 323.65
  L 173.77 306.08
  A 1.04 1.02 28.7 0 0 173.42 304.92
  L 136.31 276.39
  A 0.46 0.46 0.0 0 1 136.22 275.74
  L 141.53 268.84
  A 0.51 0.51 0.0 0 1 142.22 268.73
  L 179.09 294.41
  A 0.49 0.49 0.0 0 0 179.79 294.24
  Q 188.33 278.85 200.92 265.92
  Q 201.93 264.88 207.22 259.67
  A 0.64 0.63 49.4 0 0 207.28 258.83
  L 199.08 247.91
  A 1.72 1.72 0.0 0 0 196.75 247.52
  Q 194.39 249.12 190.97 251.74
  Q 190.39 252.18 190.42 252.57
  Q 190.44 252.83 190.62 253.22
  Q 190.79 253.57 190.57 253.82
  Q 189.32 255.30 187.78 254.47
  A 0.76 0.75 41.6 0 0 187.01 254.51
  L 184.00 256.56
  A 1.59 1.56 -12.9 0 0 183.34 257.59
  Q 182.39 263.43 176.61 262.55
  A 1.59 1.58 -56.4 0 0 175.53 262.77
  C 174.19 263.59 172.45 264.85 173.29 266.68
  Q 173.99 268.23 175.45 268.90
  A 0.65 0.65 0.0 0 1 175.57 270.01
  L 172.35 272.43
  A 0.49 0.49 0.0 0 1 171.61 272.23
  C 170.02 268.61 167.18 265.96 170.17 261.86
  C 171.00 260.73 174.01 259.60 173.84 258.02
  Q 173.54 255.28 171.52 254.78
  A 0.46 0.46 0.0 0 1 171.32 254.00
  Q 172.31 253.08 171.88 251.12
  A 1.17 1.17 0.0 0 0 169.94 250.52
  L 168.05 252.30
  A 1.91 1.91 0.0 0 1 165.18 252.00
  L 165.04 251.80
  A 1.57 1.57 0.0 0 1 165.38 249.60
  L 174.19 243.11
  A 1.88 1.88 0.0 0 1 176.76 243.43
  L 176.84 243.53
  A 1.82 1.82 0.0 0 1 176.40 246.15
  Q 174.93 247.13 173.88 247.77
  A 1.50 1.30 17.7 0 0 175.33 250.14
  Q 175.88 249.98 176.72 250.17
  A 0.73 0.71 -2.8 0 1 177.24 250.63
  Q 177.92 252.55 180.00 253.78
  A 0.98 0.97 -46.2 0 0 181.05 253.75
  L 184.21 251.59
  A 1.48 1.47 -12.7 0 0 184.84 250.60
  Q 185.05 249.33 185.81 248.21
  A 0.60 0.60 0.0 0 1 186.64 248.06
  Q 187.14 248.41 187.61 248.51
  A 1.32 1.30 32.2 0 0 188.66 248.28
  C 192.96 245.04 198.78 239.49 203.31 246.44
  Q 205.62 249.98 210.32 256.20
  A 0.60 0.59 -37.3 0 0 211.16 256.31
  L 222.19 248.03
  A 0.65 0.65 0.0 0 0 222.39 247.23
  C 219.60 241.37 217.20 236.27 210.03 239.14
  A 0.18 0.17 -72.7 0 1 209.87 238.83
  L 223.29 229.69
  A 0.20 0.20 0.0 0 1 223.56 229.99
  C 219.10 235.25 223.77 240.20 226.79 244.35
  A 0.82 0.81 56.7 0 0 227.87 244.58
  Q 238.63 238.14 250.43 233.80
  A 0.38 0.38 0.0 0 0 250.63 233.25
  L 241.71 218.00
  A 1.28 1.27 82.8 0 0 240.95 217.41
  Q 237.22 216.33 236.35 215.70
  Q 232.16 212.66 233.48 207.75
  A 0.52 0.51 37.5 0 1 234.42 207.63
  L 236.30 210.83
  A 1.20 1.19 -11.5 0 0 237.20 211.42
  Q 241.03 211.87 242.10 208.46
  A 1.07 1.03 39.4 0 0 242.00 207.61
  L 239.37 203.10
  A 0.47 0.46 -4.7 0 1 239.94 202.43
  Q 244.75 204.26 246.06 208.88
  C 246.58 210.73 245.81 212.80 245.60 214.73
  A 1.44 1.41 33.4 0 0 245.78 215.56
  L 255.04 231.40
  A 0.74 0.74 0.0 0 0 255.85 231.74
  L 271.02 227.95
  A 0.73 0.72 -7.2 0 0 271.57 227.25
  Q 271.56 225.79 270.61 222.53
  C 269.99 220.40 267.09 220.20 266.66 217.05
  A 0.61 0.61 0.0 0 1 267.11 216.38
  L 268.12 216.13
  A 0.50 0.50 0.0 0 0 268.46 215.44
  L 260.54 197.27
  A 2.38 2.30 11.1 0 0 259.99 196.48
  Q 258.33 194.93 256.96 191.49
  A 0.72 0.71 -22.9 0 1 257.34 190.57
  L 259.60 189.58
  A 0.69 0.69 0.0 0 1 260.49 189.91
  Q 261.77 192.47 262.02 194.35
  Q 262.29 196.38 263.29 198.64
  Q 269.01 211.52 270.12 214.40
  A 0.67 0.67 0.0 0 0 271.01 214.77
  L 272.06 214.32
  A 0.79 0.79 0.0 0 1 273.08 214.68
  Q 274.09 216.63 273.76 218.95
  C 273.43 221.33 276.83 225.00 278.37 226.44
  A 0.73 0.73 0.0 0 0 278.94 226.64
  L 296.82 225.38
  A 0.64 0.64 0.0 0 0 297.42 224.74
  L 297.42 200.83
  A 0.85 0.82 25.3 0 0 297.21 200.28
  L 296.07 198.96
  A 0.55 0.54 69.6 0 1 296.48 198.06
  L 306.22 198.06
  A 0.63 0.63 0.0 0 1 306.53 199.23
  C 305.25 199.96 304.96 200.65 304.94 202.16
  Q 304.73 222.49 304.64 225.26
  A 0.67 0.66 -86.9 0 0 305.25 225.95
  Q 317.33 226.83 327.45 229.27
  A 0.92 0.90 23.6 0 0 328.42 228.90
  C 329.27 227.63 330.42 224.98 331.82 223.95
  Q 332.45 223.48 332.40 222.88
  A 3.00 2.96 -58.6 0 0 332.24 222.20
  C 331.82 221.15 330.03 219.78 329.85 218.17
  Q 329.47 214.90 332.57 213.04
  A 0.18 0.17 61.1 0 0 332.63 212.81
  L 332.63 212.80
  A 0.17 0.17 0.0 0 0 332.39 212.74
  Q 330.39 213.96 330.26 214.79
  A 0.94 0.94 0.0 0 1 328.49 215.05
  C 326.27 210.57 329.03 206.72 332.56 203.30
  Q 342.65 193.56 351.07 186.83
  A 1.02 1.02 0.0 0 1 352.64 188.05
  L 343.13 209.05
  A 5.67 5.63 77.7 0 1 342.32 210.32
  Q 338.89 214.34 333.75 215.89
  Q 333.43 215.98 333.09 215.75
  A 0.57 0.56 36.7 0 0 332.32 215.86
  C 330.65 217.97 332.53 219.52 333.71 220.92
  A 2.44 2.31 18.1 0 1 334.18 221.79
  Q 334.55 223.06 334.34 224.72
  A 0.81 0.81 0.0 0 0 334.59 225.43
  Q 335.13 225.93 334.85 226.52
  Q 333.79 228.71 333.45 230.21
  A 0.58 0.58 0.0 0 0 333.82 230.88
  L 346.54 235.36
  A 1.10 1.04 -37.9 0 0 347.06 235.41
  L 352.54 234.53
  A 4.33 4.21 41.4 0 1 353.59 234.48
  Q 353.80 234.49 356.47 235.78
  Q 359.97 237.45 361.73 234.04
  Q 363.91 229.82 364.89 228.38
  A 1.11 1.10 55.4 0 0 365.05 227.51
  L 364.46 225.17
  A 0.82 0.82 0.0 0 1 364.71 224.36
  L 366.99 222.39
  A 1.05 1.05 0.0 0 0 367.22 221.08
  C 366.04 218.97 364.69 216.18 362.32 214.07
  Q 359.03 211.14 358.98 206.08
  A 0.42 0.42 0.0 0 1 359.60 205.70
  C 361.06 206.47 362.56 205.70 364.22 206.63
  Q 366.45 207.88 368.26 210.12
  A 3.80 3.71 -4.1 0 0 369.28 210.98
  L 373.72 213.55
  A 0.11 0.09 77.6 0 1 373.77 213.59
  L 382.92 221.88
  A 1.64 1.58 -88.9 0 1 383.17 222.15
  L 387.79 228.30
  A 1.29 1.26 31.1 0 1 388.03 229.23
  C 387.42 233.62 383.36 236.48 379.28 234.77
  C 377.51 234.03 376.27 232.70 374.54 231.11
  A 1.57 1.56 36.1 0 0 372.12 231.49
  Q 368.90 237.13 364.77 241.15
  A 2.22 2.22 0.0 0 0 365.06 244.56
  L 381.37 255.92
  A 0.55 0.55 0.0 0 0 382.11 255.82
  Q 394.27 241.18 397.89 236.89
  Q 398.36 236.32 397.97 235.60
  A 0.38 0.38 0.0 0 1 398.53 235.12
  L 400.43 236.58
  A 0.40 0.40 0.0 0 1 400.10 237.29
  L 399.51 237.17
  A 0.62 0.62 0.0 0 0 398.90 237.38
  L 382.90 256.58
  A 0.54 0.53 -48.0 0 0 382.93 257.30
  L 390.69 265.06
  A 0.85 0.85 0.0 0 0 391.73 265.19
  Q 401.54 259.36 412.54 252.62
  A 0.55 0.53 -20.4 0 1 413.37 252.98
  Q 413.43 253.39 413.72 253.39
  A 0.18 0.18 0.0 0 0 413.85 253.08
  Q 413.16 252.36 413.14 251.78
  A 0.98 0.98 0.0 0 1 413.59 250.92
  Q 416.84 248.80 419.45 247.35
  Q 419.93 247.08 420.08 247.23
  Q 420.27 247.44 420.36 247.42
  A 0.36 0.36 0.0 0 0 420.62 246.88
  L 417.25 241.41
  A 0.93 0.93 0.0 0 1 417.39 240.26
  C 424.99 232.75 435.19 228.87 445.13 234.01
  A 0.73 0.71 13.5 0 1 445.52 234.63
  C 445.69 245.95 437.40 253.51 427.08 256.43
  A 0.96 0.95 66.4 0 1 425.99 256.00
  L 422.91 250.73
  A 0.34 0.34 0.0 0 0 422.36 250.68
  Q 421.58 251.60 416.90 254.40
  Q 415.44 255.27 414.95 254.71
  A 0.31 0.30 -36.3 0 0 414.58 254.66
  L 393.95 266.72
  A 0.90 0.90 0.0 0 0 393.75 268.12
  Q 404.71 279.62 412.29 293.44
  A 0.73 0.73 0.0 0 0 413.30 293.72
  L 494.16 246.44
  A 0.54 0.53 -35.4 0 1 494.84 246.55
  L 499.51 251.94
  A 0.79 0.79 0.0 0 1 499.43 253.05
  L 436.72 307.32
  A 0.90 0.88 43.0 0 1 435.60 307.35
  L 427.67 301.25
  A 2.89 2.88 -24.2 0 0 426.11 300.66
  L 416.32 299.96
  A 0.16 0.16 0.0 0 0 416.15 300.10
  L 416.12 300.39
  A 0.40 0.39 5.5 0 0 416.49 300.83
  L 425.70 301.49
  A 3.13 3.12 65.9 0 1 427.37 302.13
  L 434.99 307.99
  A 0.50 0.49 43.0 0 1 435.02 308.76
  L 423.94 318.35
  A 0.84 0.84 0.0 0 0 423.67 319.20
  L 426.40 330.13
  A 0.36 0.36 0.0 0 0 426.88 330.38
  L 453.99 320.30
  A 1.50 1.46 -83.1 0 0 454.72 319.71
  Q 456.36 317.13 458.18 316.45
  C 466.34 313.41 468.03 328.55 456.89 325.32
  A 1.53 1.53 0.0 0 0 455.94 325.35
  L 428.08 335.72
  A 0.75 0.75 0.0 0 0 427.61 336.55
  Q 429.30 346.02 429.41 355.83
  A 0.47 0.46 3.5 0 0 429.82 356.29
  L 459.43 359.70
  Z"
/>
<g stroke-width="2.00" fill="none" stroke-linecap="butt">
<path stroke="#7cc7df" vector-effect="non-scaling-stroke" d="
  M 380.18 321.78
  L 380.25 330.65
  A 0.52 0.52 0.0 0 1 379.74 331.17
  L 377.21 331.22"
/>
<path stroke="#7cc7df" vector-effect="non-scaling-stroke" d="
  M 385.13 332.39
  Q 383.48 332.06 382.16 332.55
  A 0.73 0.71 -12.3 0 0 381.69 333.26
  L 382.11 341.92"
/>
<path stroke="#7cc7df" vector-effect="non-scaling-stroke" d="
  M 380.21 341.74
  L 380.11 332.88
  A 0.55 0.55 0.0 0 0 379.55 332.34
  L 376.80 332.41"
/>
<path stroke="#7cc7df" vector-effect="non-scaling-stroke" d="
  M 384.70 331.18
  L 382.28 331.18
  A 0.61 0.61 0.0 0 1 381.68 330.58
  L 381.65 321.87"
/>
</g>
<ellipse fill="#98c54c" cx="0.00" cy="0.00" transform="translate(343.13,199.78) rotate(-50.3)" rx="1.33" ry="0.21"/>
<rect fill="none" x="-0.21" y="-6.90" transform="translate(337.73,207.05) rotate(35.9)" width="0.42" height="13.80" rx="0.21"/>
<path fill="#0167a2" d="
  M 200.29 217.53
  L 198.27 216.42
  A 0.41 0.40 -48.8 0 1 198.23 215.74
  Q 201.35 213.45 203.56 213.12
  Q 205.86 212.79 206.71 212.54
  Q 208.73 211.96 209.84 212.28
  C 213.90 213.49 217.28 217.49 219.27 221.10
  A 0.99 0.98 58.8 0 1 218.96 222.40
  L 204.19 232.47
  A 0.51 0.51 0.0 0 1 203.44 232.25
  Q 200.53 225.50 195.54 221.25
  A 0.57 0.57 0.0 0 0 195.34 221.15
  L 193.03 220.66
  A 0.38 0.37 -59.9 0 1 192.86 220.01
  Q 195.20 217.91 198.10 217.80
  Q 199.17 217.76 199.37 217.86
  Q 200.15 218.27 200.20 218.25
  A 0.39 0.39 0.0 0 0 200.29 217.53
  Z"
/>
<path fill="#98c54c" d="
  M 334.22 213.45
  Q 334.28 214.15 333.73 214.79
  A 0.32 0.32 0.0 0 1 333.17 214.56
  Q 333.19 214.24 333.79 213.34
  A 0.24 0.23 -30.3 0 1 334.22 213.45
  Z"
/>
<rect fill="#0167a2" x="-9.75" y="-2.16" transform="translate(214.15,230.55) rotate(-35.2)" width="19.50" height="4.32" rx="0.60"/>
<path fill="#98c54c" d="
  M 333.21 225.54
  Q 333.26 225.91 332.59 225.84
  Q 332.11 225.79 332.11 225.38
  Q 332.12 224.85 332.54 224.81
  A 0.33 0.32 -21.9 0 1 332.83 224.93
  L 333.13 225.35
  A 0.34 0.32 -69.7 0 1 333.21 225.54
  Z"
/>
<path fill="none" d="
  M 236.87 297.12
  A 0.19 0.19 0.0 0 1 236.63 297.24
  L 236.62 297.24
  A 0.16 0.15 -75.5 0 1 236.52 297.06
  Q 239.07 285.75 239.83 274.05
  A 0.44 0.44 0.0 0 0 239.39 273.58
  L 205.61 273.58
  A 0.56 0.55 7.4 0 0 205.07 273.99
  Q 203.68 279.55 201.52 284.54
  Q 195.32 298.84 185.95 317.73
  A 0.69 0.68 -76.8 0 0 186.56 318.72
  L 193.33 318.72
  A 0.59 0.58 0.0 0 1 193.92 319.30
  L 193.92 353.77
  A 0.29 0.29 0.0 0 1 193.65 354.06
  L 167.81 355.88
  A 0.94 0.94 0.0 0 1 166.80 354.90
  Q 169.11 308.92 197.05 275.79
  C 220.02 248.54 252.50 231.79 287.94 229.68
  Q 325.90 227.42 358.35 245.18
  C 398.80 267.32 424.72 309.32 425.65 355.56
  A 0.40 0.39 -88.7 0 1 425.23 355.97
  L 398.70 354.07
  A 0.55 0.55 0.0 0 1 398.18 353.52
  L 398.18 319.27
  A 0.58 0.57 0.0 0 1 398.76 318.70
  L 405.68 318.70
  A 0.59 0.59 0.0 0 0 406.21 317.85
  C 399.67 304.54 391.78 289.14 386.91 274.10
  A 0.76 0.75 81.0 0 0 386.19 273.57
  L 353.03 273.57
  A 0.74 0.73 -1.8 0 0 352.29 274.35
  Q 352.96 285.51 355.54 296.64
  A 0.13 0.12 -17.7 0 1 355.46 296.79
  L 355.34 296.84
  A 0.19 0.18 68.0 0 1 355.09 296.73
  Q 349.02 279.96 346.95 262.72
  A 0.71 0.71 0.0 0 0 346.25 262.10
  L 338.09 262.10
  A 0.61 0.60 2.2 0 1 337.48 261.45
  L 337.98 254.48
  A 0.59 0.59 0.0 0 0 337.39 253.84
  L 329.31 253.84
  A 0.48 0.48 0.0 0 0 328.83 254.36
  L 329.34 261.68
  A 0.41 0.40 88.0 0 1 328.94 262.12
  L 245.79 262.12
  A 0.66 0.65 3.5 0 0 245.14 262.69
  Q 242.94 280.56 236.87 297.12
  Z"
/>
<path fill="none" d="
  M 434.92 251.45
  Q 441.15 246.84 443.54 239.56
  A 0.35 0.34 16.8 0 1 443.96 239.34
  L 443.97 239.35
  A 0.29 0.28 -76.8 0 1 444.17 239.68
  C 443.04 245.00 439.33 248.75 435.18 251.98
  A 0.23 0.23 0.0 0 1 434.86 251.94
  A 0.35 0.34 52.5 0 1 434.92 251.45
  Z"
/>
<path fill="none" d="
  M 435.75 239.81
  A 0.11 0.11 0.0 0 1 435.90 239.85
  L 435.91 239.85
  A 6.74 1.26 -31.1 0 1 430.79 244.41
  L 429.14 245.41
  A 6.74 1.26 -31.1 0 1 422.72 247.81
  L 422.72 247.80
  A 0.11 0.11 0.0 0 1 422.75 247.65
  L 435.75 239.81
  Z"
/>
<path fill="#98c54c" d="
  M 175.43 252.24
  Q 175.58 252.35 175.58 252.57
  A 0.37 0.37 0.0 0 1 175.35 252.90
  Q 174.37 253.30 173.25 252.68
  A 0.16 0.15 -55.4 0 1 173.21 252.44
  A 0.30 0.30 0.0 0 1 173.67 252.44
  Q 174.44 253.36 175.04 252.33
  A 0.28 0.28 0.0 0 1 175.43 252.24
  Z"
/>
<path fill="#0167a2" d="
  M 121.40 286.53
  L 112.55 279.73
  A 0.63 0.62 34.6 0 1 112.40 278.92
  Q 112.79 278.25 114.24 276.30
  Q 114.82 275.51 116.96 274.82
  Q 121.14 273.48 121.18 268.93
  C 121.20 266.34 122.13 265.43 123.42 263.66
  Q 127.00 258.69 128.74 256.74
  C 133.13 251.80 145.95 255.51 151.29 257.35
  A 1.18 1.17 11.9 0 1 152.08 258.55
  L 152.06 258.92
  A 0.56 0.55 10.2 0 1 151.35 259.41
  Q 144.04 257.28 140.81 259.55
  Q 138.36 261.26 138.47 263.66
  C 138.56 265.33 139.90 266.50 140.77 267.80
  A 0.89 0.87 -43.5 0 1 140.73 268.83
  L 136.06 274.90
  A 1.15 1.13 27.1 0 1 134.81 275.29
  Q 130.47 273.89 127.32 277.32
  C 124.89 279.96 125.19 283.72 122.30 286.48
  A 0.69 0.69 0.0 0 1 121.40 286.53
  Z"
/>
<path fill="none" d="
  M 296.07 275.65
  Q 296.30 275.65 296.47 275.78
  Q 312.48 288.14 336.78 306.85
  A 2.02 1.98 63.2 0 0 337.99 307.26
  L 357.84 307.26
  A 0.30 0.30 0.0 0 1 358.14 307.56
  L 358.14 311.90
  A 0.33 0.33 0.0 0 1 357.81 312.23
  L 353.16 312.23
  A 0.55 0.54 -0.0 0 0 352.61 312.77
  L 352.61 347.50
  A 0.45 0.44 90.0 0 1 352.17 347.95
  L 349.80 347.95
  A 0.52 0.52 0.0 0 1 349.28 347.43
  L 349.28 336.41
  A 0.47 0.47 0.0 0 0 348.81 335.94
  L 348.44 335.94
  A 0.27 0.27 0.0 0 0 348.17 336.21
  L 348.17 347.55
  A 0.34 0.33 90.0 0 1 347.84 347.89
  L 347.39 347.89
  A 0.21 0.21 0.0 0 1 347.18 347.68
  L 347.18 336.59
  A 0.61 0.61 0.0 0 0 346.57 335.98
  L 346.22 335.98
  A 0.42 0.41 -0.0 0 0 345.80 336.39
  L 345.80 347.47
  A 0.42 0.42 0.0 0 1 345.38 347.89
  L 345.07 347.89
  A 0.34 0.34 0.0 0 1 344.73 347.55
  L 344.73 336.68
  A 0.81 0.81 0.0 0 0 343.92 335.87
  L 343.60 335.87
  A 0.44 0.44 0.0 0 0 343.16 336.31
  L 343.16 347.60
  A 0.30 0.30 0.0 0 1 342.86 347.90
  L 342.57 347.90
  A 0.41 0.40 0.0 0 1 342.16 347.50
  L 342.16 336.53
  A 0.58 0.58 0.0 0 0 341.58 335.95
  L 341.26 335.95
  A 0.54 0.54 0.0 0 0 340.72 336.49
  L 340.72 347.63
  A 0.28 0.27 -0.0 0 1 340.44 347.90
  L 340.09 347.90
  A 0.39 0.38 -0.0 0 1 339.70 347.52
  L 339.65 336.57
  A 0.73 0.73 0.0 0 0 338.89 335.84
  L 338.84 335.84
  A 0.79 0.79 0.0 0 0 338.13 336.63
  L 338.13 347.56
  A 0.39 0.38 90.0 0 1 337.75 347.95
  L 337.41 347.95
  A 0.29 0.28 -90.0 0 1 337.13 347.66
  L 337.13 336.40
  A 0.43 0.43 0.0 0 0 336.70 335.97
  L 336.28 335.97
  A 0.58 0.57 -90.0 0 0 335.71 336.55
  L 335.71 347.53
  A 0.40 0.40 0.0 0 1 335.31 347.93
  L 334.94 347.93
  A 0.28 0.28 0.0 0 1 334.66 347.65
  L 334.66 336.52
  A 0.53 0.52 -90.0 0 0 334.14 335.99
  L 333.88 335.99
  A 0.40 0.39 -90.0 0 0 333.49 336.39
  L 333.49 347.26
  A 0.68 0.67 90.0 0 1 332.82 347.94
  L 330.75 347.94
  A 0.55 0.54 -90.0 0 1 330.21 347.39
  L 330.21 312.79
  A 0.55 0.55 0.0 0 0 329.66 312.24
  L 317.41 312.24
  A 0.46 0.45 90.0 0 0 316.96 312.70
  L 316.96 347.38
  A 0.54 0.53 -90.0 0 1 316.43 347.92
  L 314.18 347.92
  A 0.56 0.56 0.0 0 1 313.62 347.36
  L 313.62 312.78
  A 0.51 0.50 2.3 0 0 313.15 312.28
  Q 312.85 312.26 296.07 312.26
  Q 279.29 312.26 278.99 312.29
  A 0.51 0.50 -2.3 0 0 278.53 312.78
  L 278.53 347.36
  A 0.56 0.56 0.0 0 1 277.98 347.92
  L 275.73 347.93
  A 0.54 0.53 90.0 0 1 275.19 347.39
  L 275.19 312.71
  A 0.46 0.45 90.0 0 0 274.74 312.25
  L 262.49 312.25
  A 0.55 0.55 0.0 0 0 261.94 312.80
  L 261.94 347.40
  A 0.55 0.54 90.0 0 1 261.41 347.95
  L 259.34 347.95
  A 0.68 0.67 90.0 0 1 258.66 347.27
  L 258.66 336.40
  A 0.40 0.39 90.0 0 0 258.27 336.00
  L 258.01 336.00
  A 0.53 0.52 90.0 0 0 257.49 336.53
  L 257.49 347.66
  A 0.28 0.28 0.0 0 1 257.22 347.94
  L 256.85 347.94
  A 0.40 0.40 0.0 0 1 256.44 347.54
  L 256.44 336.56
  A 0.58 0.57 90.0 0 0 255.87 335.98
  L 255.45 335.98
  A 0.43 0.43 0.0 0 0 255.02 336.41
  L 255.02 347.67
  A 0.29 0.28 90.0 0 1 254.75 347.96
  L 254.41 347.96
  A 0.39 0.38 90.0 0 1 254.02 347.57
  L 254.02 336.64
  A 0.79 0.79 0.0 0 0 253.31 335.85
  L 253.26 335.85
  A 0.73 0.73 0.0 0 0 252.50 336.58
  L 252.45 347.53
  A 0.39 0.38 -0.0 0 1 252.07 347.91
  L 251.72 347.91
  A 0.28 0.27 -0.0 0 1 251.43 347.64
  L 251.43 336.50
  A 0.54 0.54 0.0 0 0 250.89 335.96
  L 250.57 335.96
  A 0.58 0.58 0.0 0 0 249.99 336.54
  L 249.99 347.51
  A 0.41 0.40 -0.0 0 1 249.59 347.91
  L 249.30 347.91
  A 0.30 0.30 0.0 0 1 248.99 347.61
  L 248.99 336.32
  A 0.44 0.44 0.0 0 0 248.55 335.88
  L 248.23 335.88
  A 0.81 0.81 0.0 0 0 247.42 336.69
  L 247.42 347.56
  A 0.34 0.34 0.0 0 1 247.09 347.90
  L 246.78 347.90
  A 0.42 0.42 0.0 0 1 246.35 347.48
  L 246.35 336.40
  A 0.42 0.41 -0.0 0 0 245.93 335.99
  L 245.58 335.99
  A 0.61 0.61 0.0 0 0 244.97 336.60
  L 244.97 347.69
  A 0.21 0.21 0.0 0 1 244.77 347.90
  L 244.32 347.90
  A 0.34 0.33 90.0 0 1 243.98 347.56
  L 243.98 336.22
  A 0.27 0.27 0.0 0 0 243.71 335.95
  L 243.34 335.95
  A 0.47 0.47 0.0 0 0 242.87 336.42
  L 242.87 347.44
  A 0.52 0.52 0.0 0 1 242.36 347.96
  L 239.99 347.96
  A 0.45 0.44 90.0 0 1 239.54 347.51
  L 239.54 312.78
  A 0.55 0.54 -0.0 0 0 238.99 312.24
  L 234.34 312.25
  A 0.33 0.33 0.0 0 1 234.01 311.92
  L 234.00 307.58
  A 0.30 0.30 0.0 0 1 234.30 307.28
  L 254.15 307.27
  A 2.02 1.98 -63.2 0 0 255.36 306.86
  Q 279.66 288.14 295.67 275.78
  Q 295.83 275.65 296.07 275.65
  Z"
/>
<path fill="#0167a2" d="
  M 261.25 307.18
  L 295.85 280.45
  A 0.33 0.33 0.0 0 1 296.25 280.45
  L 330.85 307.18
  A 0.33 0.33 0.0 0 1 330.65 307.77
  L 261.45 307.77
  A 0.33 0.33 0.0 0 1 261.25 307.18
  Z"
/>
<path fill="none" d="
  M 264.19 306.18
  L 295.84 281.77
  A 0.34 0.34 0.0 0 1 296.26 281.77
  L 327.91 306.18
  A 0.34 0.34 0.0 0 1 327.70 306.79
  L 264.40 306.79
  A 0.34 0.34 0.0 0 1 264.19 306.18
  Z"
/>
<path fill="#0167a2" d="
  M 296.47 298.66
  Q 296.66 298.62 296.69 298.63
  A 0.59 0.59 0.0 0 1 296.96 299.48
  Q 296.63 300.00 295.75 299.90
  A 0.54 0.53 4.2 0 1 295.28 299.36
  Q 295.31 298.14 293.85 297.50
  C 292.26 296.82 292.26 294.72 290.47 294.71
  A 0.65 0.65 0.0 0 1 289.82 294.08
  Q 289.77 292.78 290.76 292.25
  C 292.27 291.45 292.74 290.15 294.54 289.10
  A 1.18 1.18 0.0 0 0 295.11 288.27
  Q 295.17 287.97 295.12 287.84
  A 0.53 0.52 70.6 0 1 295.42 287.21
  Q 295.92 286.99 296.32 287.10
  A 0.72 0.71 12.8 0 1 296.85 287.93
  Q 296.85 287.97 296.84 288.01
  A 0.57 0.55 27.0 0 0 297.05 288.63
  C 298.26 289.51 299.14 289.99 300.03 291.37
  Q 300.66 292.35 301.25 292.36
  A 1.20 1.15 -51.5 0 1 301.46 294.67
  Q 300.98 294.81 300.89 294.85
  A 1.60 1.53 -86.4 0 0 300.15 295.53
  Q 299.30 297.05 297.12 298.30
  A 0.19 0.18 -30.1 0 1 296.87 298.24
  C 296.75 298.04 296.44 298.02 296.35 298.25
  Q 296.33 298.30 296.34 298.56
  A 0.11 0.11 0.0 0 0 296.47 298.66
  Z"
/>
<path fill="none" d="
  M 296.09 297.40
  Q 294.09 297.40 292.62 294.78
  Q 292.24 294.11 291.57 294.04
  A 0.45 0.45 0.0 0 1 291.55 293.15
  Q 292.43 293.01 292.71 292.17
  C 293.16 290.81 294.60 290.01 295.91 289.34
  A 0.14 0.01 -30.0 0 1 296.02 289.29
  Q 296.05 289.29 296.08 289.29
  Q 296.11 289.29 296.14 289.29
  A 0.14 0.01 29.8 0 1 296.25 289.34
  C 297.56 290.01 299.00 290.80 299.46 292.16
  Q 299.74 293.00 300.62 293.13
  A 0.45 0.45 0.0 0 1 300.60 294.02
  Q 299.93 294.10 299.56 294.77
  Q 298.09 297.40 296.09 297.40
  Z"
/>
<path fill="none" d="
  M 147.4240 327.2387
  A 2.77 2.77 0.0 0 1 143.6314 328.2196
  L 117.0760 312.5772
  A 2.77 2.77 0.0 0 1 116.0951 308.7847
  L 116.1560 308.6813
  A 2.77 2.77 0.0 0 1 119.9486 307.7004
  L 146.5040 323.3428
  A 2.77 2.77 0.0 0 1 147.4849 327.1353
  L 147.4240 327.2387
  Z"
/>
<rect fill="#0167a2" x="-16.25" y="-1.00" transform="translate(131.77,318.04) rotate(30.5)" width="32.50" height="2.00" rx="0.98"/>
<rect fill="#0167a2" x="-7.89" y="-11.40" transform="translate(250.73,323.64) rotate(0.1)" width="15.78" height="22.80" rx="0.48"/>
<rect fill="#0167a2" x="333.54" y="312.26" width="15.76" height="22.76" rx="0.43"/>
<path fill="none" d="
  M 286.78 324.43
  A 0.13 0.13 0.0 0 1 286.65 324.30
  L 286.65 324.22
  A 9.26 6.69 -0.2 0 1 295.89 317.50
  L 296.23 317.50
  A 9.26 6.69 -0.2 0 1 305.51 324.16
  L 305.51 324.24
  A 0.13 0.13 0.0 0 1 305.38 324.37
  L 286.78 324.43
  Z"
/>
<circle fill="none" cx="459.99" cy="320.90" r="3.38"/>
<rect fill="none" x="-1.86" y="-4.82" transform="translate(208.78,326.45) rotate(0.1)" width="3.72" height="9.64" rx="0.46"/>
<rect fill="none" x="211.78" y="321.63" width="3.60" height="9.64" rx="0.45"/>
<rect fill="none" x="-1.81" y="-4.75" transform="translate(227.09,326.39) rotate(-0.2)" width="3.62" height="9.50" rx="0.31"/>
<rect fill="none" x="230.08" y="321.60" width="3.60" height="9.56" rx="0.41"/>
<rect fill="none" x="-1.83" y="-4.80" transform="translate(360.25,326.38) rotate(-0.1)" width="3.66" height="9.60" rx="0.40"/>
<rect fill="none" x="-1.85" y="-4.76" transform="translate(365.02,326.38) rotate(-0.1)" width="3.70" height="9.52" rx="0.42"/>
<path fill="none" d="
  M 380.18 321.78
  L 380.25 330.65
  A 0.52 0.52 0.0 0 1 379.74 331.17
  L 377.21 331.22
  Q 377.08 331.16 376.93 331.07
  A 0.41 0.41 0.0 0 1 376.73 330.72
  L 376.73 322.39
  A 0.69 0.69 0.0 0 1 377.27 321.72
  Q 378.77 321.40 380.18 321.78
  Z"
/>
<path fill="none" d="
  M 384.70 331.18
  L 382.28 331.18
  A 0.61 0.61 0.0 0 1 381.68 330.58
  L 381.65 321.87
  Q 383.06 321.35 384.66 321.70
  A 0.69 0.67 -84.3 0 1 385.20 322.37
  L 385.20 330.69
  A 0.35 0.34 -25.1 0 1 385.11 330.92
  Q 384.96 331.10 384.70 331.18
  Z"
/>
<path fill="#0094c9" d="
  M 381.65 321.87
  L 381.68 330.58
  A 0.61 0.61 0.0 0 0 382.28 331.18
  L 384.70 331.18
  L 385.13 332.39
  Q 383.48 332.06 382.16 332.55
  A 0.73 0.71 -12.3 0 0 381.69 333.26
  L 382.11 341.92
  Q 382.08 342.29 380.21 341.74
  L 380.11 332.88
  A 0.55 0.55 0.0 0 0 379.55 332.34
  L 376.80 332.41
  L 377.21 331.22
  L 379.74 331.17
  A 0.52 0.52 0.0 0 0 380.25 330.65
  L 380.18 321.78
  Q 380.95 321.98 381.65 321.87
  Z"
/>
<rect fill="none" x="264.20" y="322.34" width="3.66" height="9.60" rx="0.45"/>
<rect fill="none" x="-1.81" y="-4.79" transform="translate(270.82,327.16) rotate(0.2)" width="3.62" height="9.58" rx="0.46"/>
<rect fill="none" x="-1.83" y="-4.82" transform="translate(321.32,327.18) rotate(-0.2)" width="3.66" height="9.64" rx="0.37"/>
<rect fill="none" x="324.29" y="322.35" width="3.64" height="9.62" rx="0.51"/>
<rect fill="none" x="286.37" y="325.78" width="19.42" height="20.36" rx="0.29"/>
<rect fill="none" x="-4.00" y="-0.32" transform="translate(160.06,332.01) rotate(30.0)" width="8.00" height="0.64" rx="0.31"/>
<rect fill="none" x="-4.04" y="-0.32" transform="translate(158.87,334.04) rotate(29.8)" width="8.08" height="0.64" rx="0.31"/>
<rect fill="none" x="-1.86" y="-4.79" transform="translate(208.78,337.14) rotate(0.1)" width="3.72" height="9.58" rx="0.57"/>
<rect fill="none" x="-1.81" y="-4.80" transform="translate(213.57,337.07) rotate(-0.1)" width="3.62" height="9.60" rx="0.36"/>
<rect fill="none" x="-1.79" y="-4.82" transform="translate(227.09,337.13) rotate(0.4)" width="3.58" height="9.64" rx="0.43"/>
<rect fill="none" x="-1.82" y="-4.80" transform="translate(231.86,337.08) rotate(0.3)" width="3.64" height="9.60" rx="0.41"/>
<rect fill="none" x="-1.84" y="-4.80" transform="translate(360.25,337.09) rotate(0.1)" width="3.68" height="9.60" rx="0.39"/>
<rect fill="none" x="363.18" y="332.31" width="3.70" height="9.64" rx="0.50"/>
<path fill="none" d="
  M 380.21 341.74
  Q 378.76 342.08 377.36 341.86
  A 0.61 0.60 -85.6 0 1 376.85 341.26
  L 376.80 332.41
  L 379.55 332.34
  A 0.55 0.55 0.0 0 1 380.11 332.88
  L 380.21 341.74
  Z"
/>
<path fill="none" d="
  M 385.13 332.39
  L 385.09 341.30
  A 0.54 0.54 0.0 0 1 384.57 341.83
  L 382.11 341.92
  L 381.69 333.26
  A 0.73 0.71 -12.3 0 1 382.16 332.55
  Q 383.48 332.06 385.13 332.39
  Z"
/>
<rect fill="none" x="-1.82" y="-4.81" transform="translate(266.04,337.88) rotate(0.1)" width="3.64" height="9.62" rx="0.37"/>
<rect fill="none" x="-1.79" y="-4.78" transform="translate(270.85,337.88) rotate(0.1)" width="3.58" height="9.56" rx="0.39"/>
<rect fill="none" x="-1.80" y="-4.78" transform="translate(321.32,337.85) rotate(-0.3)" width="3.60" height="9.56" rx="0.34"/>
<rect fill="none" x="-1.81" y="-4.79" transform="translate(326.10,337.86) rotate(0.3)" width="3.62" height="9.58" rx="0.43"/>
<path fill="none" d="
  M 157.91 335.82
  Q 161.26 337.83 161.09 338.11
  Q 160.93 338.38 157.58 336.37
  Q 154.23 334.36 154.40 334.08
  Q 154.56 333.81 157.91 335.82
  Z"
/>
<path fill="#0094c9" d="
  M 224.41 411.21
  L 229.11 413.92
  A 0.68 0.68 0.0 0 1 229.36 414.85
  L 227.26 418.48
  A 0.96 0.96 0.0 0 1 225.95 418.83
  L 218.73 414.66
  A 0.74 0.73 49.1 0 0 218.09 414.61
  Q 212.41 416.77 205.97 415.56
  C 193.97 413.31 190.77 401.32 192.85 390.71
  C 194.37 382.91 200.47 377.52 208.49 377.11
  Q 224.87 376.28 227.90 391.71
  Q 229.89 401.84 224.22 410.38
  A 0.58 0.58 0.0 0 0 224.41 411.21
  Z"
/>
<rect fill="#0094c9" x="-3.58" y="-3.00" transform="translate(269.29,381.01) rotate(0.1)" width="7.16" height="6.00" rx="0.54"/>
<path fill="#0094c9" d="
  M 323.91 388.01
  L 332.32 388.01
  A 0.32 0.32 0.0 0 1 332.54 388.56
  L 323.55 397.55
  A 0.32 0.32 0.0 0 0 323.50 397.93
  L 333.19 414.51
  A 0.32 0.32 0.0 0 1 332.91 414.99
  L 326.06 414.99
  A 0.32 0.32 0.0 0 1 325.79 414.83
  L 319.08 403.36
  A 0.32 0.32 0.0 0 0 318.58 403.29
  L 315.70 406.16
  A 0.32 0.32 0.0 0 0 315.61 406.38
  L 315.61 414.67
  A 0.32 0.32 0.0 0 1 315.29 414.99
  L 308.79 414.99
  A 0.32 0.32 0.0 0 1 308.47 414.67
  L 308.47 378.33
  A 0.32 0.32 0.0 0 1 308.79 378.01
  L 315.29 378.01
  A 0.32 0.32 0.0 0 1 315.61 378.33
  L 315.61 396.92
  A 0.32 0.32 0.0 0 0 316.18 397.12
  L 323.66 388.13
  A 0.32 0.32 0.0 0 1 323.91 388.01
  Z"
/>
<path fill="#98c54c" d="
  M 374.87 393.46
  L 374.87 398.54
  A 0.44 0.44 0.0 0 1 374.43 398.98
  L 359.78 398.98
  A 0.44 0.44 0.0 0 0 359.34 399.42
  L 359.34 414.55
  A 0.44 0.44 0.0 0 1 358.90 414.99
  L 352.27 414.99
  A 0.44 0.44 0.0 0 1 351.83 414.55
  L 351.83 378.44
  A 0.44 0.44 0.0 0 1 352.27 378.00
  L 376.92 378.00
  A 0.44 0.44 0.0 0 1 377.36 378.44
  L 377.36 383.55
  A 0.44 0.44 0.0 0 1 376.92 383.99
  L 359.78 383.99
  A 0.44 0.44 0.0 0 0 359.34 384.43
  L 359.34 392.58
  A 0.44 0.44 0.0 0 0 359.78 393.02
  L 374.43 393.02
  A 0.44 0.44 0.0 0 1 374.87 393.46
  Z"
/>
<rect fill="#98c54c" x="-3.59" y="-2.98" transform="translate(387.28,381.01) rotate(0.3)" width="7.18" height="5.96" rx="0.67"/>
<path fill="none" d="
  M 212.31 409.70
  Q 207.93 410.72 204.45 408.09
  C 199.81 404.60 199.46 396.92 200.46 391.73
  C 202.67 380.33 217.69 379.99 220.04 391.39
  C 221.09 396.47 220.71 401.79 218.08 406.25
  A 0.53 0.53 0.0 0 1 217.36 406.44
  L 211.59 403.11
  A 0.82 0.82 0.0 0 0 210.47 403.40
  L 208.79 406.32
  A 0.55 0.54 -60.2 0 0 208.99 407.07
  L 212.40 409.04
  A 0.36 0.36 0.0 0 1 212.31 409.70
  Z"
/>
<path fill="#0094c9" d="
  M 303.48 406.38
  C 301.49 412.97 296.39 415.58 289.60 414.87
  C 280.03 413.88 277.07 405.54 278.60 397.04
  C 280.15 388.35 289.37 385.10 296.89 387.93
  Q 301.09 389.50 302.81 393.82
  A 0.79 0.79 0.0 0 1 302.27 394.88
  L 297.36 396.10
  A 1.26 1.26 0.0 0 1 295.81 395.09
  Q 295.50 393.27 293.68 392.55
  C 289.40 390.87 286.36 393.36 285.73 397.71
  C 285.19 401.39 285.24 408.50 289.70 409.67
  Q 295.17 411.10 296.49 405.44
  A 0.39 0.38 -80.0 0 1 296.91 405.14
  L 303.14 405.86
  A 0.41 0.40 12.0 0 1 303.48 406.38
  Z"
/>
<path fill="#0094c9" d="
  M 251.49 411.58
  A 0.13 0.13 0.0 0 0 251.27 411.49
  Q 247.01 415.63 241.08 414.86
  C 236.82 414.31 234.13 411.63 233.74 407.46
  Q 233.49 404.89 233.59 388.41
  A 0.41 0.41 0.0 0 1 234.00 388.01
  L 240.35 388.01
  A 0.41 0.41 0.0 0 1 240.76 388.42
  Q 240.64 397.92 240.82 404.98
  Q 240.89 407.44 241.82 408.55
  C 244.03 411.19 248.24 409.93 249.97 407.29
  Q 250.89 405.89 250.92 402.25
  Q 251.00 394.85 250.96 388.34
  A 0.33 0.33 0.0 0 1 251.29 388.00
  L 257.79 388.00
  A 0.33 0.33 0.0 0 1 258.12 388.33
  L 258.12 414.29
  A 0.72 0.71 -0.0 0 1 257.40 415.00
  L 252.07 415.00
  A 0.58 0.58 0.0 0 1 251.49 414.42
  L 251.49 411.58
  Z"
/>
<rect fill="#0094c9" x="265.72" y="388.02" width="7.16" height="26.98" rx="0.43"/>
<rect fill="#98c54c" x="-3.58" y="-13.49" transform="translate(387.29,401.52) rotate(-0.1)" width="7.16" height="26.98" rx="0.50"/>
<path fill="#98c54c" d="
  M 408.22 395.09
  Q 408.45 395.09 408.68 394.73
  Q 411.43 390.48 412.57 388.79
  A 1.86 1.85 16.9 0 1 414.11 387.97
  L 420.76 387.97
  A 0.41 0.41 0.0 0 1 421.10 388.61
  L 412.83 400.48
  A 0.64 0.64 0.0 0 0 412.82 401.20
  L 422.13 414.85
  A 0.06 0.05 -15.0 0 1 422.08 414.93
  L 413.94 414.93
  A 0.37 0.36 72.3 0 1 413.64 414.77
  Q 410.79 410.41 408.55 407.04
  Q 408.48 406.94 408.27 406.94
  Q 408.06 406.94 408.00 407.04
  Q 405.78 410.43 402.96 414.81
  A 0.37 0.36 -72.8 0 1 402.66 414.97
  L 394.52 415.04
  A 0.06 0.05 14.5 0 1 394.47 414.96
  L 403.68 401.24
  A 0.64 0.64 0.0 0 0 403.66 400.52
  L 395.30 388.71
  A 0.41 0.41 0.0 0 1 395.63 388.07
  L 402.28 388.02
  A 1.86 1.85 -17.3 0 1 403.83 388.82
  Q 404.98 390.51 407.77 394.73
  Q 408.00 395.09 408.22 395.09
  Z"
/>
<path fill="#0167a2" d="
  M 201.69 442.48
  L 201.69 427.58
  A 0.54 0.54 0.0 0 1 202.23 427.04
  L 209.15 427.04
  A 4.53 4.53 0.0 0 1 213.68 431.57
  L 213.68 432.46
  A 4.49 4.49 0.0 0 1 209.19 436.95
  L 204.44 436.95
  A 0.64 0.64 0.0 0 0 203.80 437.59
  L 203.80 442.42
  A 0.57 0.57 0.0 0 1 203.23 442.99
  L 202.19 442.99
  A 0.51 0.50 90.0 0 1 201.69 442.48
  Z"
/>
<path fill="#0167a2" d="
  M 297.16 439.81
  Q 297.22 439.81 297.25 439.80
  A 0.18 0.09 -5.1 0 0 297.38 439.72
  L 301.52 427.62
  A 0.90 0.90 0.0 0 1 302.37 427.01
  L 304.18 427.01
  A 0.52 0.51 -90.0 0 1 304.69 427.53
  L 304.69 442.49
  A 0.53 0.53 0.0 0 1 304.16 443.02
  L 303.21 443.02
  A 0.54 0.53 90.0 0 1 302.68 442.48
  L 302.68 429.78
  A 0.11 0.11 0.0 0 0 302.47 429.75
  L 298.29 442.42
  A 1.14 1.07 74.0 0 1 298.16 442.68
  Q 297.89 443.06 297.15 443.06
  Q 296.41 443.06 296.15 442.67
  A 1.14 1.07 -73.7 0 1 296.01 442.41
  L 291.90 429.72
  A 0.11 0.11 0.0 0 0 291.69 429.75
  L 291.62 442.45
  A 0.54 0.53 -89.7 0 1 291.09 442.99
  L 290.14 442.98
  A 0.53 0.53 0.0 0 1 289.61 442.45
  L 289.70 427.49
  A 0.52 0.51 -89.7 0 1 290.21 426.97
  L 292.02 426.98
  A 0.90 0.90 0.0 0 1 292.87 427.60
  L 296.94 439.72
  A 0.18 0.09 5.4 0 0 297.07 439.80
  Q 297.10 439.81 297.16 439.81
  Z"
/>
<path fill="#0167a2" d="
  M 319.73 428.83
  A 1.06 0.96 -57.7 0 1 319.49 427.45
  Q 319.91 426.74 320.96 427.13
  A 0.95 0.92 -45.8 0 1 320.95 428.87
  Q 320.26 429.17 319.73 428.83
  Z"
/>
<path fill="#0167a2" d="
  M 261.77 432.19
  Q 262.63 430.50 265.30 431.23
  A 1.24 1.20 0.5 0 0 266.83 429.77
  Q 266.36 428.00 268.13 427.40
  A 0.46 0.45 -9.3 0 1 268.73 427.83
  L 268.73 430.34
  A 0.79 0.79 0.0 0 0 269.52 431.13
  L 270.23 431.13
  A 0.81 0.81 0.0 0 1 270.64 432.64
  Q 270.14 432.93 269.49 432.95
  A 0.77 0.77 0.0 0 0 268.73 433.72
  L 268.73 440.05
  A 0.89 0.89 0.0 0 0 269.32 440.89
  L 270.45 441.29
  A 0.80 0.80 0.0 0 1 270.39 442.82
  Q 268.18 443.40 267.09 441.89
  A 1.48 1.46 -63.0 0 1 266.82 441.04
  L 266.82 433.91
  A 1.22 1.22 0.0 0 0 265.30 432.73
  L 263.03 433.30
  A 2.17 2.16 -7.0 0 0 261.39 435.40
  L 261.39 442.35
  A 0.70 0.70 0.0 0 1 260.69 443.05
  L 260.04 443.05
  A 0.65 0.64 90.0 0 1 259.40 442.40
  L 259.42 431.73
  A 0.84 0.84 0.0 0 1 260.85 431.14
  Q 260.98 431.28 261.27 432.15
  A 0.27 0.27 0.0 0 0 261.77 432.19
  Z"
/>
<path fill="#0167a2" d="
  M 338.73 427.79
  L 338.73 430.37
  A 0.70 0.69 -1.2 0 0 339.46 431.06
  Q 340.43 431.02 340.81 431.57
  Q 341.30 432.28 340.39 432.75
  Q 339.95 432.97 339.46 432.97
  A 0.73 0.72 90.0 0 0 338.74 433.70
  L 338.74 440.06
  A 0.87 0.87 0.0 0 0 339.31 440.88
  L 340.46 441.28
  A 0.81 0.81 0.0 0 1 340.42 442.82
  Q 338.47 443.38 337.15 442.06
  A 1.09 1.09 0.0 0 1 336.83 441.29
  L 336.83 433.63
  A 0.64 0.63 9.7 0 0 336.40 433.03
  L 335.44 432.69
  A 0.66 0.66 0.0 0 1 335.42 431.45
  Q 337.13 430.78 336.94 429.85
  Q 336.82 429.26 336.81 429.23
  Q 336.60 428.08 338.09 427.38
  A 0.45 0.45 0.0 0 1 338.73 427.79
  Z"
/>
<path fill="none" d="
  M 203.78 429.31
  A 0.30 0.30 0.0 0 1 204.07 429.01
  L 208.54 428.97
  A 2.95 2.74 -0.5 0 1 211.52 431.69
  L 211.52 432.21
  A 2.95 2.74 -0.5 0 1 208.60 434.97
  L 204.13 435.01
  A 0.30 0.30 0.0 0 1 203.82 434.71
  L 203.78 429.31
  Z"
/>
<path fill="#0167a2" d="
  M 218.85 432.08
  Q 219.83 430.54 221.83 431.17
  A 0.66 0.65 9.3 0 1 222.28 431.79
  L 222.28 432.51
  A 0.69 0.69 0.0 0 1 221.42 433.18
  C 217.26 432.12 218.30 439.95 218.40 442.34
  A 0.65 0.65 0.0 0 1 217.75 443.02
  L 216.97 443.02
  A 0.56 0.56 0.0 0 1 216.41 442.46
  L 216.41 431.73
  A 0.84 0.83 24.2 0 1 217.87 431.18
  Q 218.15 431.49 218.18 431.90
  A 0.37 0.36 59.6 0 0 218.85 432.08
  Z"
/>
<path fill="#0167a2" d="
  M 233.2922 438.1722
  A 4.81 4.81 0.0 0 1 228.4073 442.9060
  L 227.5474 442.8925
  A 4.81 4.81 0.0 0 1 222.8135 438.0076
  L 222.8478 435.8278
  A 4.81 4.81 0.0 0 1 227.7327 431.0940
  L 228.5926 431.1075
  A 4.81 4.81 0.0 0 1 233.3265 435.9924
  L 233.2922 438.1722
  Z"
/>
<path fill="#0167a2" d="
  M 237.76 432.43
  Q 240.11 430.07 242.73 431.60
  C 248.20 434.80 244.45 446.50 237.87 441.90
  A 0.33 0.33 0.0 0 0 237.36 442.17
  L 237.36 446.40
  A 0.61 0.61 0.0 0 1 236.75 447.01
  L 236.05 447.01
  A 0.60 0.60 0.0 0 1 235.45 446.41
  Q 235.44 433.27 235.46 431.65
  A 0.93 0.80 19.7 0 1 236.88 431.10
  Q 237.20 431.32 237.29 432.26
  A 0.28 0.28 0.0 0 0 237.76 432.43
  Z"
/>
<path fill="#0167a2" d="
  M 249.48 436.98
  A 0.68 0.67 81.1 0 0 248.84 437.86
  Q 250.06 441.70 253.31 440.84
  C 254.50 440.52 254.78 439.39 256.03 438.91
  A 0.82 0.82 0.0 0 1 256.97 440.18
  C 255.35 442.28 254.21 443.23 251.77 442.95
  C 244.85 442.15 244.92 431.25 252.49 431.04
  A 4.34 4.32 -15.8 0 1 256.35 433.18
  L 257.32 434.84
  A 1.42 1.42 0.0 0 1 256.09 436.98
  L 249.48 436.98
  Z"
/>
<path fill="#0167a2" d="
  M 276.55 439.58
  A 0.19 0.18 -46.1 0 0 276.90 439.57
  L 279.73 431.53
  A 0.86 0.84 -70.3 0 1 280.81 431.01
  L 281.28 431.17
  A 0.45 0.45 0.0 0 1 281.55 431.75
  Q 277.49 443.24 276.96 444.40
  Q 275.68 447.17 273.25 446.96
  A 1.23 1.23 0.0 0 1 272.14 445.93
  L 272.11 445.76
  A 0.70 0.70 0.0 0 1 272.92 444.95
  Q 274.91 445.27 275.52 442.70
  A 1.46 1.43 42.1 0 0 275.47 441.87
  L 271.71 431.78
  A 0.59 0.59 0.0 0 1 272.46 431.02
  L 273.30 431.31
  A 0.49 0.45 2.2 0 1 273.58 431.59
  L 276.55 439.58
  Z"
/>
<path fill="#0167a2" d="
  M 316.79 443.01
  Q 315.57 443.13 314.91 442.44
  A 0.71 0.71 0.0 0 0 314.05 442.31
  C 311.44 443.77 306.41 443.13 306.86 439.06
  C 307.25 435.54 311.94 435.70 314.10 435.19
  A 0.84 0.84 0.0 0 0 314.30 433.62
  Q 310.96 431.87 308.82 434.82
  A 0.82 0.81 71.2 0 1 307.38 434.11
  Q 308.12 431.54 310.92 431.17
  C 319.78 429.99 315.34 438.30 317.16 442.39
  A 0.45 0.44 -14.6 0 1 316.79 443.01
  Z"
/>
<rect fill="#0167a2" x="-0.96" y="-5.99" transform="translate(320.43,437.00) rotate(0.1)" width="1.92" height="11.98" rx="0.44"/>
<path fill="#0167a2" d="
  M 326.86 432.16
  Q 327.00 432.09 327.07 431.74
  Q 327.08 431.64 327.51 431.50
  C 331.63 430.09 333.86 431.81 333.74 436.31
  Q 333.67 439.33 333.74 442.38
  A 0.64 0.63 89.1 0 1 333.11 443.04
  L 332.33 443.04
  A 0.56 0.56 0.0 0 1 331.77 442.48
  L 331.77 435.33
  A 2.26 2.26 0.0 0 0 329.27 433.08
  L 328.84 433.13
  A 2.75 2.75 0.0 0 0 326.39 435.86
  L 326.39 442.30
  A 0.73 0.72 90.0 0 1 325.67 443.03
  L 325.02 443.03
  A 0.58 0.58 0.0 0 1 324.44 442.45
  L 324.44 431.49
  A 0.51 0.51 0.0 0 1 324.85 430.99
  Q 325.99 430.77 326.27 431.88
  A 0.42 0.42 0.0 0 0 326.86 432.16
  Z"
/>
<path fill="#0167a2" d="
  M 344.48 436.97
  A 0.67 0.67 0.0 0 0 343.84 437.85
  Q 345.05 441.69 348.29 440.84
  C 349.48 440.52 349.77 439.39 351.02 438.92
  A 0.82 0.82 0.0 0 1 351.95 440.19
  C 350.33 442.28 349.19 443.23 346.75 442.94
  C 339.84 442.12 339.94 431.23 347.51 431.05
  A 4.34 4.31 -15.7 0 1 351.35 433.20
  L 352.32 434.86
  A 1.42 1.42 0.0 0 1 351.08 436.99
  L 344.48 436.97
  Z"
/>
<path fill="#0167a2" d="
  M 356.26 431.88
  A 0.42 0.42 0.0 0 0 356.85 432.16
  Q 356.99 432.09 357.06 431.74
  Q 357.07 431.64 357.50 431.50
  C 361.61 430.09 363.84 431.80 363.73 436.30
  Q 363.67 439.32 363.74 442.36
  A 0.64 0.63 89.0 0 1 363.11 443.02
  L 362.33 443.02
  A 0.56 0.56 0.0 0 1 361.77 442.47
  L 361.76 435.32
  A 2.26 2.26 0.0 0 0 359.26 433.08
  L 358.83 433.13
  A 2.75 2.74 -3.2 0 0 356.39 435.86
  L 356.40 442.29
  A 0.73 0.72 89.9 0 1 355.68 443.02
  L 355.03 443.02
  A 0.58 0.58 0.0 0 1 354.45 442.45
  L 354.43 431.50
  A 0.51 0.51 0.0 0 1 354.84 431.00
  Q 355.98 430.77 356.26 431.88
  Z"
/>
<path fill="#0167a2" d="
  M 376.16 442.38
  A 0.45 0.44 -14.7 0 1 375.79 443.01
  Q 374.57 443.13 373.91 442.44
  A 0.71 0.71 0.0 0 0 373.05 442.31
  C 370.44 443.77 365.41 443.14 365.86 439.07
  C 366.24 435.55 370.93 435.70 373.09 435.19
  A 0.84 0.84 0.0 0 0 373.29 433.62
  Q 369.95 431.87 367.81 434.82
  A 0.82 0.81 71.1 0 1 366.37 434.12
  Q 367.11 431.55 369.91 431.17
  C 378.77 429.98 374.34 438.30 376.16 442.38
  Z"
/>
<path fill="#0167a2" d="
  M 380.26 431.89
  A 0.42 0.42 0.0 0 0 380.85 432.16
  Q 380.99 432.09 381.06 431.74
  Q 381.07 431.64 381.50 431.50
  C 385.61 430.09 387.85 431.80 387.73 436.30
  Q 387.67 439.32 387.74 442.37
  A 0.64 0.63 89.0 0 1 387.11 443.03
  L 386.33 443.03
  A 0.56 0.56 0.0 0 1 385.77 442.47
  L 385.76 435.32
  A 2.26 2.26 0.0 0 0 383.26 433.08
  L 382.83 433.13
  A 2.75 2.74 -3.2 0 0 380.39 435.86
  L 380.40 442.30
  A 0.73 0.72 89.9 0 1 379.68 443.03
  L 379.03 443.03
  A 0.58 0.58 0.0 0 1 378.45 442.45
  L 378.43 431.50
  A 0.51 0.51 0.0 0 1 378.84 431.00
  Q 379.98 430.78 380.26 431.89
  Z"
/>
<path fill="#0167a2" d="
  M 391.85 437.08
  C 391.89 439.63 393.19 441.40 395.98 440.92
  C 397.30 440.70 397.28 439.12 398.86 438.92
  A 0.63 0.63 0.0 0 1 399.55 439.71
  Q 398.91 442.11 396.57 442.74
  C 392.42 443.86 389.92 441.04 389.86 437.11
  C 389.80 433.18 392.22 430.29 396.39 431.27
  Q 398.76 431.84 399.47 434.22
  A 0.63 0.63 0.0 0 1 398.80 435.03
  C 397.22 434.88 397.19 433.30 395.86 433.11
  C 393.06 432.72 391.81 434.53 391.85 437.08
  Z"
/>
<path fill="#0167a2" d="
  M 403.48 436.97
  A 0.67 0.67 0.0 0 0 402.84 437.85
  Q 404.06 441.69 407.30 440.83
  C 408.49 440.52 408.77 439.39 410.02 438.91
  A 0.82 0.82 0.0 0 1 410.96 440.18
  C 409.34 442.27 408.20 443.22 405.76 442.94
  C 398.85 442.13 398.94 431.24 406.50 431.04
  A 4.34 4.31 -15.8 0 1 410.35 433.19
  L 411.32 434.85
  A 1.42 1.42 0.0 0 1 410.09 436.98
  L 403.48 436.97
  Z"
/>
<ellipse fill="none" cx="0.00" cy="0.00" transform="translate(228.08,437.00) rotate(-91.7)" rx="4.01" ry="3.41"/>
<ellipse fill="none" cx="0.00" cy="0.00" transform="translate(240.29,437.03) rotate(-88.3)" rx="4.00" ry="3.13"/>
<path fill="none" d="
  M 249.22 435.03
  A 0.14 0.14 0.0 0 1 249.08 434.89
  L 249.08 434.84
  A 2.91 1.73 -0.5 0 1 251.97 433.08
  L 252.23 433.08
  A 2.91 1.73 -0.5 0 1 255.16 434.78
  L 255.16 434.83
  A 0.14 0.14 0.0 0 1 255.02 434.97
  L 249.22 435.03
  Z"
/>
<path fill="none" d="
  M 344.20 435.02
  A 0.14 0.14 0.0 0 1 344.06 434.88
  L 344.06 434.83
  A 2.92 1.73 -0.5 0 1 346.96 433.07
  L 347.22 433.07
  A 2.92 1.73 -0.5 0 1 350.16 434.77
  L 350.16 434.82
  A 0.14 0.14 0.0 0 1 350.02 434.96
  L 344.20 435.02
  Z"
/>
<path fill="none" d="
  M 403.20 435.03
  A 0.14 0.14 0.0 0 1 403.06 434.89
  L 403.06 434.84
  A 2.92 1.73 -0.5 0 1 405.96 433.08
  L 406.22 433.08
  A 2.92 1.73 -0.5 0 1 409.16 434.78
  L 409.16 434.83
  A 0.14 0.14 0.0 0 1 409.02 434.97
  L 403.20 435.03
  Z"
/>
<path fill="none" d="
  M 314.75 437.81
  Q 314.67 441.44 310.06 440.81
  A 1.35 1.35 0.0 0 1 309.62 438.28
  Q 310.87 437.62 314.18 437.29
  A 0.52 0.51 -2.5 0 1 314.75 437.81
  Z"
/>
<path fill="none" d="
  M 373.14 437.27
  A 0.52 0.51 -2.3 0 1 373.71 437.79
  Q 373.61 441.40 369.02 440.76
  A 1.34 1.34 0.0 0 1 368.59 438.23
  Q 369.84 437.58 373.14 437.27
  Z"
/>
</svg>
