<?xml version="1.0" encoding="UTF-8" standalone="no"?>
<!DOCTYPE svg PUBLIC "-//W3C//DTD SVG 1.1//EN" "http://www.w3.org/Graphics/SVG/1.1/DTD/svg11.dtd">
<svg xmlns="http://www.w3.org/2000/svg" version="1.1" viewBox="0.00 0.00 612.00 306.00">
<path fill="#1a3a6b" d="
  M 612.00 0.00
  L 612.00 306.00
  L 0.00 306.00
  L 0.00 0.00
  L 612.00 0.00
  Z"
/>
<path fill="#f8fcfd" d="
  M 250.61 261.59
  Q 250.62 261.61 250.89 261.78
  A 0.44 0.41 -28.2 0 0 251.11 261.84
  L 268.75 261.84
  A 0.46 0.46 0.0 0 0 269.21 261.38
  Q 269.14 248.30 269.41 243.15
  C 269.73 237.10 271.16 231.60 273.81 224.99
  Q 277.84 214.96 279.38 211.15
  Q 279.50 210.86 280.11 210.48
  A 0.57 0.56 60.7 0 0 280.31 209.75
  C 278.41 205.97 275.33 203.66 272.78 200.12
  Q 270.20 196.52 269.80 195.40
  C 268.97 193.03 269.94 188.40 273.06 187.79
  C 279.60 186.51 284.84 189.24 289.50 193.73
  C 295.90 199.90 297.80 207.84 295.49 216.71
  C 294.40 220.90 294.44 225.40 294.99 230.11
  Q 296.73 244.89 297.32 261.52
  A 0.33 0.33 0.0 0 0 297.65 261.84
  L 317.16 261.84
  A 0.39 0.39 0.0 0 0 317.55 261.39
  Q 316.74 256.10 317.43 250.44
  C 318.39 242.50 318.73 233.58 318.23 229.49
  C 316.99 219.29 316.91 207.85 317.32 200.66
  A 0.49 0.49 0.0 0 0 316.87 200.14
  Q 314.29 199.92 314.42 197.31
  Q 314.49 195.70 314.48 187.31
  Q 314.48 184.76 316.96 185.13
  A 0.65 0.65 0.0 0 0 317.70 184.40
  C 317.31 181.26 319.58 181.67 322.07 181.65
  Q 327.04 181.62 328.31 181.71
  A 1.18 1.17 75.5 0 1 329.22 182.25
  Q 329.83 183.23 329.90 183.64
  A 3.16 2.84 82.4 0 0 332.98 186.27
  Q 343.36 185.41 353.50 180.92
  A 0.49 0.49 0.0 0 1 354.18 181.30
  Q 356.63 198.58 350.81 214.94
  A 0.44 0.44 0.0 0 1 350.07 215.08
  Q 342.17 205.99 331.53 199.90
  A 1.38 1.37 -74.3 0 0 329.47 201.06
  Q 329.11 217.02 328.56 234.98
  Q 328.42 239.76 325.90 253.28
  Q 325.41 255.93 326.10 261.33
  A 0.63 0.63 0.0 0 0 326.74 261.88
  Q 344.98 261.80 361.69 261.85
  Q 362.58 261.86 362.75 261.57
  Q 362.93 261.28 362.87 260.84
  Q 362.82 260.39 362.95 260.11
  Q 364.27 257.42 366.48 254.76
  A 2.33 2.33 0.0 0 0 367.02 253.24
  L 366.61 219.61
  A 3.63 3.57 -53.2 0 0 366.48 218.65
  Q 366.47 218.62 364.32 214.46
  C 361.81 209.61 363.58 205.62 366.95 202.06
  Q 368.40 200.52 370.56 200.89
  A 1.68 1.12 -64.8 0 1 370.91 203.22
  Q 369.58 205.34 368.81 206.81
  A 1.08 1.07 50.1 0 0 368.74 207.62
  L 370.00 211.75
  A 1.13 1.12 -4.8 0 0 370.94 212.54
  L 374.64 212.97
  A 0.56 0.55 -70.4 0 0 375.19 212.70
  L 377.64 208.46
  A 0.66 0.63 50.4 0 0 377.68 207.91
  L 375.85 203.08
  A 1.04 1.03 77.9 0 1 376.75 201.68
  Q 378.79 201.54 379.63 202.81
  C 383.20 208.28 384.32 212.85 379.31 217.82
  A 3.34 3.34 0.0 0 0 378.32 220.24
  Q 378.44 229.46 378.73 251.00
  C 378.77 253.92 378.80 254.93 380.23 257.22
  Q 381.52 259.27 381.93 261.27
  A 0.68 0.67 -5.8 0 0 382.59 261.80
  L 409.60 261.80
  A 0.54 0.53 0.0 0 0 410.14 261.27
  L 410.14 240.49
  A 1.16 1.15 -90.0 0 0 408.99 239.33
  L 401.90 239.33
  A 1.29 1.28 86.3 0 0 400.63 240.79
  L 401.43 246.93
  A 0.98 0.60 -58.3 0 1 401.43 247.12
  Q 400.75 253.19 401.17 260.35
  A 0.69 0.68 88.8 0 1 400.48 261.08
  L 400.37 261.08
  A 0.71 0.71 0.0 0 1 399.66 260.36
  Q 399.84 249.57 399.75 240.02
  Q 399.74 238.26 402.40 238.22
  A 0.76 0.75 -0.8 0 0 403.14 237.47
  L 403.14 232.94
  A 0.59 0.59 0.0 0 0 402.55 232.35
  L 397.50 232.35
  A 1.04 1.01 57.1 0 1 397.06 232.25
  C 395.09 231.33 394.89 229.26 395.68 227.27
  Q 399.55 217.60 403.02 208.78
  A 2.85 2.84 16.0 0 1 406.19 207.03
  Q 407.48 207.28 408.16 208.86
  Q 409.10 211.06 415.57 227.86
  Q 416.61 230.57 414.23 232.06
  C 413.05 232.80 410.01 232.25 408.63 232.42
  A 0.77 0.76 86.6 0 0 407.96 233.18
  L 407.96 237.60
  A 0.77 0.76 -0.0 0 0 408.73 238.36
  L 409.82 238.36
  A 1.42 1.41 90.0 0 1 411.23 239.78
  L 411.23 261.19
  A 0.65 0.65 0.0 0 0 411.88 261.84
  L 425.45 261.84
  A 0.47 0.47 0.0 0 0 425.92 261.32
  L 424.54 246.61
  A 13.37 13.18 49.4 0 1 424.84 242.27
  Q 426.02 237.20 427.80 231.07
  Q 428.16 229.82 427.81 229.40
  Q 427.43 228.95 426.85 228.53
  A 1.56 1.53 6.5 0 1 426.33 227.89
  L 425.01 224.82
  A 1.35 1.35 0.0 0 1 426.24 222.93
  C 427.47 222.92 428.98 223.81 430.24 223.22
  Q 431.74 222.53 431.34 221.01
  Q 430.62 218.23 430.99 216.69
  A 2.70 2.55 -43.4 0 0 431.04 215.81
  Q 430.58 211.55 430.85 210.79
  Q 432.89 204.97 434.13 200.87
  A 0.93 0.92 4.1 0 1 434.87 200.23
  Q 436.20 200.04 437.08 200.22
  A 1.09 1.08 86.8 0 1 437.92 200.98
  L 440.86 210.61
  A 2.05 1.64 -60.4 0 1 440.93 211.05
  L 441.14 217.42
  A 9.66 9.58 49.5 0 1 440.98 219.56
  C 440.37 221.43 440.58 222.78 442.36 223.63
  C 443.16 224.01 444.69 223.16 445.96 223.26
  A 1.24 1.24 0.0 0 1 447.05 224.88
  L 446.06 227.89
  A 0.88 0.84 -7.0 0 1 445.66 228.38
  Q 444.47 229.06 444.06 229.72
  A 1.01 1.00 48.2 0 0 444.01 230.67
  Q 444.28 231.26 445.11 235.32
  C 445.97 239.49 447.33 243.46 446.81 247.52
  Q 445.80 255.45 445.19 261.38
  A 0.43 0.42 -86.9 0 0 445.61 261.85
  L 469.37 261.85
  A 0.57 0.57 0.0 0 0 469.94 261.31
  Q 470.38 251.30 470.50 248.63
  C 470.79 241.71 461.26 248.13 460.60 242.42
  Q 460.05 237.73 460.43 233.92
  A 0.79 0.79 0.0 0 1 461.22 233.21
  L 491.94 233.21
  A 0.62 0.62 0.0 0 1 492.56 233.82
  Q 492.57 234.25 492.65 239.98
  C 492.72 245.38 489.85 245.22 485.60 245.03
  A 2.79 2.78 1.3 0 0 482.69 247.81
  L 482.69 261.18
  A 0.67 0.67 0.0 0 0 483.36 261.85
  L 506.45 261.85
  A 0.31 0.31 0.0 0 0 506.76 261.54
  L 506.76 209.85
  A 1.02 1.01 -13.0 0 0 505.30 208.94
  L 503.46 209.83
  A 1.02 1.00 -50.5 0 1 502.80 209.90
  L 496.98 208.39
  A 1.21 1.20 7.6 0 1 496.08 207.23
  L 496.08 197.52
  A 1.64 1.63 -8.7 0 1 497.23 195.96
  C 499.52 195.24 502.87 194.66 504.67 195.50
  A 1.33 1.32 18.7 0 0 506.53 194.58
  Q 506.88 192.89 507.47 192.02
  C 508.72 190.16 513.14 190.57 514.94 190.87
  A 2.76 2.70 65.5 0 1 516.05 191.30
  Q 516.73 191.75 517.74 194.11
  A 1.17 1.17 0.0 0 0 518.53 194.78
  Q 528.27 197.07 537.05 202.03
  A 0.97 0.97 0.0 0 1 536.99 203.75
  Q 527.67 208.15 518.27 210.07
  A 0.57 0.57 0.0 0 0 517.82 210.63
  L 517.82 261.40
  A 0.44 0.43 -90.0 0 0 518.25 261.84
  L 538.43 261.84
  A 0.43 0.43 0.0 0 0 538.84 261.28
  Q 538.75 261.02 538.64 260.92
  A 0.70 0.68 -68.2 0 1 538.44 260.43
  Q 538.27 243.98 538.28 243.26
  Q 538.31 240.34 541.36 240.43
  A 0.47 0.47 0.0 0 0 541.85 239.96
  L 541.85 225.08
  A 3.18 2.88 -54.7 0 0 541.76 224.34
  L 540.20 218.17
  A 4.56 4.56 0.0 0 1 540.20 215.87
  L 541.87 209.45
  A 0.81 0.79 6.9 0 1 542.65 208.85
  L 546.10 208.85
  A 0.89 0.89 0.0 0 1 546.97 209.54
  L 548.58 216.82
  A 1.89 1.82 46.7 0 1 548.57 217.69
  L 546.80 224.51
  A 0.39 0.14 -64.3 0 0 546.79 224.60
  L 546.71 239.83
  A 0.59 0.59 0.0 0 0 547.23 240.42
  L 549.38 240.68
  A 0.81 0.80 3.2 0 1 550.10 241.48
  L 550.10 261.31
  A 0.54 0.53 90.0 0 0 550.63 261.85
  L 568.19 261.85
  A 0.59 0.59 0.0 0 0 568.78 261.26
  C 568.76 247.68 568.13 238.62 572.22 227.95
  Q 576.23 217.47 579.54 210.00
  A 1.04 1.03 -48.3 0 0 579.49 209.05
  Q 578.08 206.63 577.85 206.41
  Q 574.13 202.88 570.41 197.24
  C 568.73 194.68 568.44 192.39 569.98 189.97
  Q 571.55 187.50 574.51 187.44
  C 581.18 187.30 585.58 190.06 590.04 194.74
  Q 595.74 200.72 596.01 209.17
  C 596.17 214.50 593.49 221.42 594.21 227.25
  Q 596.33 244.27 596.83 261.28
  A 0.59 0.59 0.0 0 0 597.42 261.85
  L 608.97 261.85
  A 0.58 0.57 -86.9 0 1 609.54 262.49
  L 609.50 262.80
  A 0.46 0.45 -86.4 0 1 609.05 263.20
  L 2.86 263.20
  A 0.45 0.45 0.0 0 1 2.41 262.78
  L 2.39 262.46
  A 0.57 0.57 0.0 0 1 2.96 261.86
  L 17.58 261.86
  A 0.46 0.46 0.0 0 0 18.03 261.33
  C 17.60 258.42 17.32 255.66 17.69 252.55
  C 18.67 244.45 19.21 234.62 18.24 225.16
  Q 17.11 214.02 17.88 201.02
  A 0.91 0.91 0.0 0 0 17.36 200.15
  Q 17.11 200.03 16.77 200.02
  A 1.80 1.66 0.1 0 1 15.03 198.41
  Q 14.85 193.25 14.97 187.24
  Q 15.01 184.96 17.13 185.12
  A 0.83 0.83 0.0 0 0 18.02 184.32
  Q 18.13 181.70 19.98 181.68
  Q 26.23 181.63 28.54 181.71
  Q 30.62 181.78 30.29 184.06
  A 0.96 0.95 19.7 0 0 30.75 185.03
  L 32.84 186.23
  A 0.85 0.77 54.6 0 0 33.34 186.34
  Q 44.27 185.22 53.97 180.97
  A 0.55 0.55 0.0 0 1 54.73 181.41
  Q 56.99 198.80 51.22 215.06
  A 0.35 0.35 0.0 0 1 50.63 215.18
  Q 43.02 206.53 33.25 200.60
  Q 31.71 199.67 30.43 199.98
  A 0.78 0.77 -6.3 0 0 29.83 200.72
  Q 29.56 220.68 29.02 234.25
  C 28.66 243.10 25.46 252.21 26.46 261.55
  A 0.35 0.35 0.0 0 0 26.81 261.87
  Q 43.19 261.81 62.22 261.86
  Q 63.14 261.86 63.14 261.56
  Q 63.14 261.52 63.13 260.74
  A 1.41 1.37 -30.1 0 1 63.35 259.96
  L 67.13 254.24
  A 1.88 1.86 -28.5 0 0 67.44 253.21
  L 67.12 219.93
  A 4.38 4.37 -58.7 0 0 66.65 218.00
  C 64.58 213.91 62.03 210.71 64.64 205.84
  Q 65.40 204.43 67.15 202.30
  A 4.04 4.03 -68.8 0 1 70.46 200.84
  L 70.64 200.85
  A 1.27 1.26 17.1 0 1 71.67 202.78
  L 69.32 206.53
  A 1.37 1.35 52.6 0 0 69.18 207.64
  L 70.45 211.81
  A 1.02 1.01 -4.8 0 0 71.30 212.52
  L 74.86 212.94
  A 0.93 0.93 0.0 0 0 75.77 212.49
  L 77.94 208.73
  A 0.61 0.60 -39.3 0 0 77.99 208.25
  L 76.35 202.87
  A 0.99 0.99 0.0 0 1 77.30 201.59
  L 77.63 201.59
  A 3.21 3.20 -16.2 0 1 80.44 203.13
  Q 81.61 205.07 82.49 207.42
  Q 84.34 212.42 80.85 216.57
  Q 79.64 217.99 79.00 219.11
  A 2.45 2.39 60.3 0 0 78.67 220.37
  L 79.24 254.24
  A 0.66 0.63 34.0 0 0 79.30 254.51
  L 82.62 261.36
  A 0.88 0.87 76.8 0 0 83.40 261.85
  L 99.69 261.85
  A 0.46 0.45 90.0 0 0 100.14 261.39
  L 100.14 239.89
  A 1.56 1.55 -0.0 0 1 101.70 238.34
  L 103.04 238.34
  A 0.59 0.59 0.0 0 0 103.63 237.75
  L 103.63 232.98
  A 0.60 0.60 0.0 0 0 103.03 232.38
  Q 102.18 232.37 100.00 232.39
  C 96.11 232.44 94.84 230.60 96.25 227.00
  Q 102.65 210.72 103.45 208.85
  C 104.31 206.82 106.53 206.36 108.18 208.13
  A 1.97 1.82 -79.6 0 1 108.58 208.76
  Q 115.06 225.23 116.02 227.97
  Q 116.94 230.56 114.63 232.21
  A 0.96 0.92 -61.8 0 1 114.08 232.39
  L 108.85 232.39
  A 0.32 0.32 0.0 0 0 108.53 232.71
  L 108.53 237.86
  A 0.36 0.36 0.0 0 0 108.94 238.22
  Q 111.82 237.77 111.80 241.16
  Q 111.76 249.40 111.73 261.30
  A 0.54 0.53 0.5 0 0 112.27 261.84
  L 125.94 261.84
  A 0.40 0.39 -2.6 0 0 126.34 261.41
  C 125.46 251.52 124.20 245.85 125.76 240.26
  Q 126.75 236.73 128.36 230.19
  A 1.01 1.01 0.0 0 0 128.06 229.19
  Q 126.20 227.49 125.42 224.67
  A 1.46 1.46 0.0 0 1 127.19 222.86
  L 129.49 223.46
  A 1.90 1.89 5.9 0 0 131.86 221.54
  C 131.81 220.44 131.10 218.96 131.27 218.12
  Q 131.68 216.19 131.10 212.45
  A 2.07 2.07 0.0 0 1 131.18 211.43
  L 134.51 201.29
  A 2.04 2.04 0.0 0 1 138.40 201.32
  L 141.21 210.40
  A 0.51 0.44 -59.2 0 1 141.24 210.57
  L 141.60 219.22
  A 0.37 0.18 70.7 0 1 141.59 219.31
  Q 140.99 221.09 141.04 221.64
  A 2.30 2.30 0.0 0 0 143.78 223.64
  L 146.03 223.18
  A 1.28 1.28 0.0 0 1 147.56 224.62
  Q 147.10 227.84 144.80 229.19
  A 0.84 0.82 -21.9 0 0 144.41 230.08
  L 147.53 244.11
  A 2.18 2.10 43.8 0 1 147.56 244.85
  L 145.62 261.31
  A 0.49 0.47 -86.8 0 0 146.09 261.85
  L 170.02 261.85
  A 0.34 0.33 -89.1 0 0 170.35 261.52
  Q 170.59 254.91 170.90 249.75
  C 171.06 246.99 170.52 244.93 167.70 245.04
  Q 164.08 245.19 163.05 244.82
  Q 160.95 244.06 160.89 241.85
  Q 160.79 238.57 160.82 233.73
  A 0.58 0.58 0.0 0 1 161.40 233.15
  L 192.11 233.15
  A 0.85 0.85 0.0 0 1 192.96 233.99
  Q 193.05 237.99 192.94 241.51
  C 192.80 245.81 188.69 245.16 185.47 245.09
  A 1.72 1.68 -57.0 0 0 184.67 245.27
  Q 182.75 246.28 182.84 248.10
  Q 183.38 259.00 183.41 261.47
  A 0.38 0.37 -0.0 0 0 183.79 261.84
  L 206.96 261.84
  A 0.25 0.24 -0.0 0 0 207.21 261.60
  L 207.21 209.89
  A 1.02 1.01 -12.9 0 0 205.75 208.98
  L 204.20 209.74
  A 1.62 1.59 38.7 0 1 203.09 209.85
  L 197.62 208.43
  A 1.54 1.54 0.0 0 1 196.47 206.94
  L 196.47 197.50
  A 1.58 1.57 82.9 0 1 197.66 195.97
  C 200.05 195.37 203.08 194.49 204.99 195.49
  A 1.55 1.43 -74.0 0 0 207.09 194.21
  C 207.54 189.93 212.17 190.39 215.45 190.98
  A 2.96 2.84 0.1 0 1 217.81 193.25
  Q 217.90 193.72 218.21 194.27
  A 1.10 1.06 -7.4 0 0 218.91 194.79
  Q 228.46 196.91 237.56 202.06
  A 0.92 0.92 0.0 0 1 237.52 203.68
  Q 228.68 208.06 218.68 210.06
  A 0.46 0.45 84.7 0 0 218.31 210.51
  L 218.31 261.22
  A 0.63 0.62 -0.0 0 0 218.94 261.84
  L 238.29 261.84
  A 0.57 0.56 -89.5 0 0 238.85 261.28
  Q 238.95 246.41 238.82 243.39
  Q 238.67 240.14 241.60 240.42
  A 0.65 0.64 2.8 0 0 242.31 239.78
  L 242.31 225.04
  A 2.68 2.46 -55.0 0 0 242.22 224.36
  L 240.55 217.82
  A 3.13 3.05 -45.8 0 1 240.55 216.31
  L 242.29 209.60
  A 0.81 0.78 -87.9 0 1 242.88 209.03
  Q 244.46 208.67 246.40 208.92
  A 0.93 0.93 0.0 0 1 247.18 209.57
  Q 248.98 215.38 248.93 217.23
  Q 248.88 218.81 247.41 223.71
  A 5.19 5.13 -36.9 0 0 247.19 225.20
  L 247.19 239.96
  A 0.50 0.49 -3.1 0 0 247.74 240.45
  Q 249.20 240.30 250.17 241.17
  A 1.41 1.41 0.0 0 1 250.64 242.22
  L 250.64 260.60
  A 0.34 0.34 0.0 0 1 250.26 260.94
  L 249.93 260.90
  A 0.41 0.41 0.0 0 1 249.56 260.49
  L 249.56 242.72
  A 1.22 1.22 0.0 0 0 248.34 241.50
  L 241.12 241.50
  A 1.22 1.22 0.0 0 0 239.90 242.72
  L 239.90 261.36
  A 0.49 0.49 0.0 0 0 240.39 261.85
  Q 245.58 261.89 249.23 261.77
  Q 249.65 261.75 249.99 261.53
  A 0.50 0.49 50.1 0 1 250.61 261.59
  Z"
/>
<path fill="#1a3a6b" d="
  M 332.73 187.38
  Q 343.29 186.39 352.70 182.39
  A 0.49 0.48 75.2 0 1 353.36 182.78
  Q 355.14 198.20 350.45 212.96
  A 0.44 0.44 0.0 0 1 349.71 213.12
  Q 342.05 204.82 332.51 199.28
  A 1.10 1.08 -75.5 0 1 331.96 198.33
  L 331.96 188.22
  A 0.85 0.84 -2.6 0 1 332.73 187.38
  Z"
/>
<rect fill="#1a3a6b" x="19.04" y="182.68" width="10.32" height="2.38" rx="0.96"/>
<path fill="#1a3a6b" d="
  M 32.47 188.17
  A 0.85 0.84 -2.4 0 1 33.24 187.33
  Q 43.81 186.39 53.23 182.42
  A 0.49 0.48 75.5 0 1 53.89 182.81
  Q 55.61 198.24 50.86 212.98
  A 0.44 0.44 0.0 0 1 50.12 213.14
  Q 42.50 204.81 32.98 199.23
  A 1.10 1.08 -75.3 0 1 32.43 198.28
  L 32.47 188.17
  Z"
/>
<rect fill="#1a3a6b" x="-5.15" y="-1.20" transform="translate(323.78,183.87) rotate(0.3)" width="10.30" height="2.40" rx="0.87"/>
<rect fill="#1a3a6b" x="-7.71" y="-6.48" transform="translate(23.68,192.56) rotate(-0.1)" width="15.42" height="12.96" rx="1.02"/>
<rect fill="#1a3a6b" x="-7.73" y="-6.50" transform="translate(323.26,192.55) rotate(-0.1)" width="15.46" height="13.00" rx="1.13"/>
<path fill="#1a3a6b" d="
  M 294.89 208.40
  C 294.33 207.89 294.13 207.02 293.16 206.40
  Q 286.74 202.29 281.67 197.32
  C 280.45 196.11 280.17 194.20 278.74 193.14
  Q 276.18 191.23 272.87 189.77
  A 0.49 0.49 0.0 0 1 272.98 188.84
  C 284.71 186.69 294.13 197.61 295.49 208.08
  A 0.36 0.36 0.0 0 1 294.89 208.40
  Z"
/>
<path fill="#1a3a6b" d="
  M 595.11 208.29
  A 0.36 0.36 0.0 0 1 594.50 208.61
  C 593.95 208.09 593.75 207.22 592.78 206.59
  Q 586.38 202.43 581.34 197.42
  C 580.12 196.20 579.85 194.29 578.43 193.22
  Q 575.88 191.29 572.57 189.80
  A 0.49 0.49 0.0 0 1 572.69 188.87
  C 584.45 186.80 593.81 197.79 595.11 208.29
  Z"
/>
<path fill="#1a3a6b" d="
  M 571.96 190.77
  Q 574.90 196.69 580.04 198.28
  A 4.71 4.65 75.2 0 1 581.95 199.41
  Q 586.21 203.55 590.56 206.25
  C 594.16 208.49 595.29 211.89 594.29 215.33
  C 592.27 222.28 593.29 229.13 594.22 236.56
  A 2.78 2.77 -3.7 0 1 591.47 239.68
  L 591.28 239.68
  A 3.42 3.41 86.0 0 1 587.89 236.73
  Q 587.16 231.30 586.51 225.73
  Q 584.88 211.56 574.85 201.69
  Q 574.06 200.92 570.64 195.66
  A 3.86 3.86 0.0 0 1 570.14 192.58
  L 570.57 190.91
  A 0.75 0.74 39.1 0 1 571.96 190.77
  Z"
/>
<path fill="#1a3a6b" d="
  M 271.00 190.90
  A 0.75 0.74 39.1 0 1 272.39 190.76
  Q 275.33 196.68 280.47 198.27
  A 4.71 4.65 75.2 0 1 282.38 199.41
  Q 286.65 203.55 291.00 206.25
  C 294.60 208.49 295.73 211.89 294.73 215.33
  C 292.71 222.29 293.74 229.14 294.67 236.57
  A 2.78 2.78 0.0 0 1 291.92 239.70
  L 291.73 239.70
  A 3.42 3.41 85.9 0 1 288.33 236.75
  Q 287.60 231.31 286.95 225.74
  Q 285.32 211.56 275.28 201.69
  Q 274.49 200.92 271.07 195.65
  A 3.87 3.86 35.8 0 1 270.57 192.57
  L 271.00 190.90
  Z"
/>
<path fill="#1a3a6b" d="
  M 217.10 261.83
  L 208.59 261.83
  A 0.25 0.25 0.0 0 1 208.34 261.58
  Q 208.08 216.17 208.18 210.47
  Q 208.24 207.42 205.25 207.56
  A 0.95 0.94 9.0 0 0 204.41 208.16
  Q 204.28 208.50 203.97 208.69
  Q 203.60 208.92 203.07 208.79
  Q 200.00 208.05 198.10 207.46
  A 0.88 0.87 -81.5 0 1 197.49 206.62
  L 197.49 197.78
  A 0.87 0.86 -6.3 0 1 198.17 196.94
  L 202.62 195.95
  A 1.70 1.69 60.9 0 1 204.18 196.40
  L 204.63 196.84
  A 0.69 0.68 54.2 0 0 205.42 196.97
  L 207.53 195.95
  A 0.97 0.96 76.4 0 0 208.07 195.05
  Q 207.97 191.46 211.98 191.67
  Q 215.06 191.83 215.26 191.89
  A 2.07 2.02 -13.7 0 1 216.17 192.43
  Q 217.04 193.33 217.09 194.80
  A 0.79 0.79 0.0 0 0 217.71 195.53
  Q 227.05 197.61 236.15 202.38
  A 0.46 0.46 0.0 0 1 236.13 203.21
  Q 226.94 207.47 217.63 209.17
  A 0.44 0.44 0.0 0 0 217.28 209.60
  L 217.28 261.65
  A 0.18 0.18 0.0 0 1 217.10 261.83
  Z"
/>
<path fill="#1a3a6b" d="
  M 516.64 261.87
  L 508.13 261.87
  A 0.25 0.25 0.0 0 1 507.88 261.62
  Q 507.64 216.20 507.74 210.49
  Q 507.80 207.44 504.81 207.58
  A 0.95 0.94 9.0 0 0 503.97 208.18
  Q 503.84 208.52 503.53 208.71
  Q 503.16 208.94 502.63 208.81
  Q 499.56 208.07 497.66 207.48
  A 0.88 0.87 -81.5 0 1 497.05 206.64
  L 497.06 197.80
  A 0.87 0.86 -6.2 0 1 497.74 196.96
  L 502.19 195.97
  A 1.70 1.69 61.0 0 1 503.75 196.42
  L 504.20 196.86
  A 0.69 0.68 54.2 0 0 504.99 196.99
  L 507.10 195.97
  A 0.97 0.96 76.4 0 0 507.64 195.07
  Q 507.54 191.48 511.55 191.69
  Q 514.63 191.85 514.83 191.91
  A 2.07 2.02 -13.6 0 1 515.74 192.45
  Q 516.61 193.36 516.66 194.83
  A 0.79 0.79 0.0 0 0 517.28 195.56
  Q 526.62 197.64 535.72 202.42
  A 0.46 0.46 0.0 0 1 535.70 203.25
  Q 526.51 207.50 517.19 209.20
  A 0.44 0.44 0.0 0 0 516.84 209.63
  L 516.82 261.69
  A 0.18 0.18 0.0 0 1 516.64 261.87
  Z"
/>
<path fill="#1a3a6b" d="
  M 274.54 193.26
  A 0.07 0.07 0.0 0 1 274.52 193.17
  L 274.60 193.03
  A 2.33 0.85 30.7 0 1 277.04 193.49
  L 277.78 193.93
  A 2.33 0.85 30.7 0 1 279.34 195.85
  L 279.26 195.98
  A 0.07 0.07 0.0 0 1 279.17 196.01
  L 274.54 193.26
  Z"
/>
<path fill="#1a3a6b" d="
  M 574.64 192.74
  Q 577.12 193.76 578.74 194.97
  A 0.46 0.46 0.0 0 1 578.27 195.75
  Q 575.85 194.60 574.42 193.06
  A 0.20 0.20 0.0 0 1 574.64 192.74
  Z"
/>
<path fill="#1a3a6b" d="
  M 25.19 261.88
  L 19.25 261.88
  A 0.35 0.35 0.0 0 1 18.90 261.54
  C 18.79 258.35 18.38 255.64 18.77 252.22
  C 19.77 243.54 20.18 234.07 19.15 223.63
  Q 18.14 213.34 18.93 200.31
  A 0.28 0.27 -87.7 0 1 19.20 200.05
  L 28.62 200.05
  A 0.24 0.23 90.0 0 1 28.85 200.29
  C 28.36 223.04 28.83 234.61 25.51 252.07
  Q 24.86 255.49 25.50 261.54
  A 0.31 0.31 0.0 0 1 25.19 261.88
  Z"
/>
<path fill="#1a3a6b" d="
  M 318.47 261.49
  C 318.36 258.30 317.95 255.59 318.34 252.18
  C 319.34 243.51 319.75 234.05 318.73 223.62
  Q 317.72 213.34 318.51 200.33
  A 0.28 0.27 -87.7 0 1 318.78 200.07
  L 328.19 200.07
  A 0.24 0.23 -90.0 0 1 328.42 200.31
  C 327.93 223.03 328.39 234.59 325.07 252.03
  Q 324.42 255.45 325.06 261.49
  A 0.31 0.31 0.0 0 1 324.75 261.83
  L 318.82 261.83
  A 0.35 0.35 0.0 0 1 318.47 261.49
  Z"
/>
<path fill="#1a3a6b" d="
  M 76.04 261.12
  A 0.34 0.34 0.0 0 0 76.50 260.80
  L 76.50 260.29
  A 0.24 0.23 8.5 0 0 76.33 260.07
  Q 72.43 259.09 70.50 259.45
  Q 69.32 259.67 69.35 261.20
  A 0.61 0.60 89.5 0 1 68.75 261.82
  L 64.55 261.82
  A 0.48 0.47 11.4 0 1 64.11 261.16
  Q 65.49 257.97 67.82 255.47
  A 2.64 2.59 -24.1 0 0 68.53 253.66
  L 68.09 218.78
  A 2.12 2.08 29.1 0 0 67.78 217.72
  C 65.54 214.16 63.29 210.62 65.51 206.53
  Q 65.99 205.64 68.34 202.73
  A 2.15 2.15 0.0 0 1 69.95 201.93
  L 70.21 201.92
  A 0.40 0.40 0.0 0 1 70.58 202.52
  L 68.23 206.59
  A 1.44 1.42 -38.8 0 0 68.10 207.72
  L 69.62 212.72
  A 1.21 1.21 0.0 0 0 70.62 213.56
  L 75.17 214.09
  A 1.30 1.30 0.0 0 0 76.45 213.45
  L 79.08 208.89
  A 0.59 0.57 -38.4 0 0 79.14 208.43
  L 77.66 203.60
  A 0.65 0.65 0.0 0 1 78.80 203.03
  Q 81.28 206.37 82.00 209.68
  C 82.70 212.87 80.51 215.21 77.99 218.54
  A 1.62 1.59 -27.1 0 0 77.67 219.50
  L 78.18 254.47
  A 2.03 1.99 31.1 0 0 78.41 255.36
  L 81.60 261.27
  A 0.36 0.35 -14.7 0 1 81.29 261.79
  L 70.73 261.84
  A 0.53 0.52 6.9 0 1 70.22 261.19
  L 70.24 261.12
  A 0.96 0.96 0.0 0 1 71.14 260.40
  Q 73.86 260.33 76.04 261.12
  Z"
/>
<path fill="#1a3a6b" d="
  M 375.59 261.17
  A 0.34 0.34 0.0 0 0 376.05 260.85
  L 376.05 260.33
  A 0.24 0.23 8.6 0 0 375.88 260.11
  Q 371.96 259.13 370.03 259.49
  Q 368.84 259.71 368.87 261.24
  A 0.61 0.60 89.6 0 1 368.27 261.86
  L 364.05 261.86
  A 0.48 0.48 0.0 0 1 363.61 261.20
  Q 365.00 258.00 367.34 255.49
  A 2.65 2.60 -24.1 0 0 368.05 253.67
  L 367.64 218.66
  A 2.13 2.09 29.2 0 0 367.33 217.60
  C 365.08 214.02 362.83 210.46 365.06 206.36
  Q 365.54 205.47 367.90 202.55
  A 2.16 2.16 0.0 0 1 369.52 201.75
  L 369.78 201.74
  A 0.41 0.40 13.6 0 1 370.15 202.34
  L 367.79 206.42
  A 1.45 1.43 -38.8 0 0 367.66 207.56
  L 369.18 212.58
  A 1.22 1.21 -4.9 0 0 370.18 213.42
  L 374.75 213.96
  A 1.31 1.31 0.0 0 0 376.04 213.32
  L 378.68 208.74
  A 0.59 0.58 -38.4 0 0 378.74 208.28
  L 377.26 203.43
  A 0.65 0.65 0.0 0 1 378.40 202.86
  Q 380.89 206.21 381.61 209.54
  C 382.31 212.74 380.11 215.09 377.58 218.43
  A 1.63 1.60 -27.1 0 0 377.26 219.39
  L 377.74 254.49
  A 2.04 2.00 31.1 0 0 377.97 255.39
  L 381.17 261.32
  A 0.36 0.35 -14.6 0 1 380.86 261.84
  L 370.26 261.89
  A 0.53 0.53 0.0 0 1 369.74 261.23
  L 369.76 261.16
  A 0.96 0.96 0.0 0 1 370.67 260.44
  Q 373.40 260.37 375.59 261.17
  Z"
/>
<path fill="#1a3a6b" d="
  M 434.53 203.57
  A 0.38 0.30 -50.8 0 1 434.54 202.90
  Q 434.76 202.81 434.88 203.09
  Q 434.96 203.27 434.86 203.39
  Q 434.71 203.56 434.53 203.57
  Z"
/>
<path fill="#1a3a6b" d="
  M 437.86 203.13
  Q 438.01 203.70 437.63 203.81
  A 0.42 0.31 -78.2 0 1 437.34 203.19
  Q 437.53 202.85 437.81 203.05
  A 0.25 0.14 87.3 0 1 437.86 203.13
  Z"
/>
<ellipse fill="#1a3a6b" cx="0.00" cy="0.00" transform="translate(136.45,206.23) rotate(-88.8)" rx="1.96" ry="0.67"/>
<ellipse fill="#1a3a6b" cx="0.00" cy="0.00" transform="translate(435.89,206.25) rotate(-88.6)" rx="1.72" ry="0.79"/>
<path fill="#1a3a6b" d="
  M 138.54 206.68
  A 0.22 0.21 48.7 0 1 138.94 206.71
  L 140.18 210.77
  A 1.16 0.88 -63.7 0 1 140.22 210.98
  L 140.59 218.76
  A 0.94 0.77 57.9 0 1 140.56 218.99
  C 139.08 224.87 130.96 222.53 132.54 217.01
  Q 133.32 214.26 136.78 214.08
  A 0.62 0.62 0.0 0 0 137.37 213.46
  L 137.37 209.74
  A 1.90 1.83 58.0 0 1 137.53 208.98
  L 138.54 206.68
  Z"
/>
<path fill="#1a3a6b" d="
  M 434.58 211.97
  L 432.76 212.85
  A 0.81 0.81 0.0 0 1 431.64 211.87
  L 433.28 206.90
  A 0.23 0.23 0.0 0 1 433.70 206.85
  Q 435.11 209.15 434.94 211.44
  A 0.63 0.62 -11.3 0 1 434.58 211.97
  Z"
/>
<path fill="#1a3a6b" d="
  M 134.34 207.08
  Q 135.64 209.31 135.17 211.63
  A 1.05 1.05 0.0 0 1 134.60 212.37
  L 133.08 213.11
  A 0.62 0.62 0.0 0 1 132.19 212.48
  Q 132.49 209.78 133.73 207.10
  A 0.35 0.34 42.8 0 1 134.34 207.08
  Z"
/>
<path fill="#1a3a6b" d="
  M 438.21 206.80
  A 0.21 0.21 0.0 0 1 438.61 206.83
  L 439.80 210.88
  A 1.15 0.87 -63.1 0 1 439.84 211.09
  L 440.13 218.82
  A 0.93 0.77 58.5 0 1 440.10 219.05
  C 438.57 224.88 430.52 222.48 432.15 217.01
  Q 432.95 214.28 436.39 214.14
  A 0.62 0.62 0.0 0 0 436.98 213.53
  L 437.02 209.83
  A 1.89 1.82 58.5 0 1 437.18 209.08
  L 438.21 206.80
  Z"
/>
<path fill="#1a3a6b" d="
  M 106.03 238.36
  Q 105.62 238.36 105.23 238.29
  A 0.73 0.72 4.7 0 1 104.63 237.58
  L 104.62 232.05
  A 0.69 0.68 -1.6 0 0 103.90 231.37
  Q 101.43 231.50 98.84 231.28
  Q 95.99 231.06 96.86 228.57
  Q 98.45 224.07 104.45 209.15
  Q 104.92 207.97 105.97 207.97
  Q 107.06 207.97 107.53 209.14
  Q 113.57 224.06 115.16 228.55
  Q 116.04 231.03 113.20 231.27
  Q 110.61 231.49 108.14 231.37
  A 0.69 0.68 1.5 0 0 107.41 232.05
  L 107.42 237.57
  A 0.73 0.72 -4.9 0 1 106.82 238.29
  Q 106.43 238.36 106.03 238.36
  Z"
/>
<path fill="#1a3a6b" d="
  M 405.54 208.01
  Q 406.63 208.01 407.10 209.19
  Q 413.09 224.04 414.67 228.52
  Q 415.54 230.99 412.71 231.22
  Q 410.13 231.44 407.67 231.31
  A 0.68 0.68 0.0 0 0 406.95 231.99
  L 406.95 237.49
  A 0.72 0.72 0.0 0 1 406.35 238.20
  Q 405.96 238.27 405.57 238.27
  Q 405.15 238.27 404.77 238.20
  A 0.72 0.72 0.0 0 1 404.17 237.49
  L 404.17 231.99
  A 0.68 0.68 0.0 0 0 403.45 231.31
  Q 400.99 231.44 398.41 231.22
  Q 395.58 230.99 396.45 228.52
  Q 398.03 224.04 404.03 209.19
  Q 404.50 208.01 405.54 208.01
  Z"
/>
<path fill="#f8fcfd" d="
  M 592.04 211.87
  A 3.88 3.88 0.0 0 1 588.16 215.75
  A 3.88 3.88 0.0 0 1 584.28 211.87
  A 3.88 3.88 0.0 0 1 588.16 207.99
  A 3.88 3.88 0.0 0 1 592.04 211.87
  Z"
/>
<path fill="#f8fcfd" d="
  M 292.47 211.89
  A 3.86 3.86 0.0 0 1 288.61 215.75
  A 3.86 3.86 0.0 0 1 284.75 211.89
  A 3.86 3.86 0.0 0 1 288.61 208.03
  A 3.86 3.86 0.0 0 1 292.47 211.89
  Z"
/>
<circle fill="#1a3a6b" cx="288.61" cy="211.89" r="2.79"/>
<circle fill="#1a3a6b" cx="588.16" cy="211.86" r="2.82"/>
<path fill="#1a3a6b" d="
  M 244.77 209.94
  Q 245.38 209.94 245.66 209.94
  A 0.77 0.76 82.8 0 1 246.40 210.52
  L 247.88 216.31
  A 2.88 2.86 45.0 0 1 247.89 217.70
  L 246.23 224.31
  A 1.99 1.73 55.1 0 0 246.19 224.70
  L 246.18 239.72
  A 0.68 0.67 -5.7 0 1 245.63 240.39
  Q 245.34 240.44 244.79 240.44
  Q 244.23 240.44 243.94 240.39
  A 0.68 0.67 5.6 0 1 243.39 239.72
  L 243.35 224.70
  A 1.99 1.73 -55.2 0 0 243.31 224.31
  L 241.64 217.71
  A 2.88 2.86 -45.0 0 1 241.65 216.32
  L 243.12 210.52
  A 0.77 0.76 -82.9 0 1 243.87 209.94
  Q 244.14 209.94 244.77 209.94
  Z"
/>
<path fill="#1a3a6b" d="
  M 544.25 240.48
  Q 543.70 240.48 543.41 240.43
  A 0.68 0.67 5.8 0 1 542.85 239.75
  L 542.88 224.64
  A 2.00 1.74 -54.9 0 0 542.84 224.25
  L 541.19 217.60
  A 2.90 2.88 -44.8 0 1 541.20 216.20
  L 542.71 210.38
  A 0.78 0.77 -82.6 0 1 543.46 209.79
  Q 543.74 209.79 544.35 209.79
  Q 544.99 209.80 545.26 209.80
  A 0.78 0.77 83.0 0 1 546.01 210.39
  L 547.48 216.22
  A 2.90 2.88 45.2 0 1 547.48 217.62
  L 545.78 224.26
  A 2.00 1.74 55.3 0 0 545.74 224.65
  L 545.66 239.76
  A 0.68 0.67 -5.4 0 1 545.10 240.43
  Q 544.81 240.48 544.25 240.48
  Z"
/>
<path fill="#1a3a6b" d="
  M 581.47 212.17
  Q 581.74 212.66 581.85 213.15
  A 0.16 0.16 0.0 0 1 581.56 213.28
  Q 581.26 212.88 581.01 212.43
  Q 580.76 211.98 580.58 211.51
  A 0.16 0.16 0.0 0 1 580.84 211.34
  Q 581.20 211.69 581.47 212.17
  Z"
/>
<path fill="#1a3a6b" d="
  M 281.40 211.92
  Q 280.65 213.47 281.32 214.55
  A 0.84 0.84 0.0 0 1 281.30 215.48
  Q 280.42 216.71 280.12 217.63
  Q 276.58 228.59 273.09 239.05
  A 3.03 3.03 0.0 0 0 274.73 242.77
  L 274.94 242.87
  A 2.35 2.35 0.0 0 0 278.20 241.45
  L 283.59 224.20
  A 0.20 0.20 0.0 0 1 283.98 224.24
  C 284.61 230.23 284.05 238.49 279.64 243.42
  C 276.06 247.41 276.33 256.06 276.66 261.31
  A 0.52 0.52 0.0 0 1 276.14 261.87
  L 270.69 261.87
  A 0.50 0.49 90.0 0 1 270.20 261.37
  C 270.27 248.95 269.58 238.68 273.23 229.45
  Q 277.69 218.13 278.73 215.47
  Q 279.82 212.70 281.24 211.77
  A 0.12 0.11 87.3 0 1 281.40 211.92
  Z"
/>
<path fill="#1a3a6b" d="
  M 582.51 214.56
  Q 583.62 217.52 584.37 219.99
  Q 585.26 222.92 584.34 223.97
  A 0.68 0.67 63.6 0 0 584.17 224.49
  Q 584.20 224.79 583.25 234.37
  Q 582.72 239.62 578.62 244.11
  C 575.63 247.39 575.97 257.72 576.24 261.55
  A 0.28 0.28 0.0 0 1 575.96 261.85
  L 570.01 261.85
  A 0.26 0.26 0.0 0 1 569.75 261.58
  Q 569.80 247.73 569.92 243.51
  C 570.09 237.64 572.09 230.42 575.06 223.56
  Q 577.03 219.02 579.36 212.74
  A 0.20 0.20 0.0 0 1 579.71 212.70
  Q 580.26 213.48 580.87 213.85
  A 0.61 0.60 -61.6 0 1 581.09 214.62
  L 579.86 217.15
  A 2.05 1.94 -25.0 0 0 579.73 217.48
  L 572.51 239.45
  A 2.73 2.72 -70.8 0 0 574.15 242.86
  L 574.49 243.01
  A 2.33 2.32 -68.8 0 0 577.64 241.61
  L 584.16 221.77
  A 0.79 0.79 0.0 0 0 583.81 220.85
  L 583.40 220.62
  A 0.66 0.65 24.0 0 0 582.45 220.98
  L 576.40 239.39
  A 1.47 1.38 52.7 0 0 576.34 239.97
  L 576.46 241.33
  A 0.78 0.78 0.0 0 1 575.41 242.13
  Q 574.73 241.88 574.13 241.54
  A 1.23 1.23 0.0 0 1 573.80 239.65
  Q 574.41 238.96 574.62 238.38
  Q 575.70 235.33 581.49 217.75
  Q 581.96 216.34 582.09 214.62
  A 0.22 0.22 0.0 0 1 582.51 214.56
  Z"
/>
<path fill="#1a3a6b" d="
  M 282.71 213.60
  Q 282.75 213.67 282.89 214.45
  A 0.20 0.20 0.0 0 1 282.52 214.58
  Q 282.30 214.21 282.28 213.73
  A 0.23 0.23 0.0 0 1 282.71 213.60
  Z"
/>
<path fill="#f8fcfd" d="
  M 459.90 226.35
  L 459.33 216.92
  A 1.91 1.91 0.0 0 1 461.24 214.89
  L 491.79 214.89
  A 1.91 1.91 0.0 0 1 493.69 217.02
  L 492.57 226.45
  A 1.91 1.91 0.0 0 1 490.67 228.14
  L 461.81 228.14
  A 1.91 1.91 0.0 0 1 459.90 226.35
  Z"
/>
<path fill="#f8fcfd" d="
  M 194.11 217.04
  L 193.01 226.43
  A 1.91 1.91 0.0 0 1 191.11 228.12
  L 162.33 228.12
  A 1.91 1.91 0.0 0 1 160.42 226.33
  L 159.85 216.94
  A 1.91 1.91 0.0 0 1 161.76 214.91
  L 192.21 214.91
  A 1.91 1.91 0.0 0 1 194.11 217.04
  Z"
/>
<path fill="#1a3a6b" d="
  M 288.29 261.87
  L 278.23 261.87
  A 0.66 0.65 -90.0 0 1 277.58 261.21
  C 277.57 256.32 276.96 248.68 280.17 244.48
  C 282.79 241.05 283.89 239.20 284.62 234.93
  C 285.32 230.87 285.80 225.49 284.44 221.41
  A 0.90 0.89 -45.3 0 0 282.74 221.42
  L 276.71 239.76
  A 0.92 0.92 0.0 0 0 276.76 240.46
  L 276.88 240.71
  A 0.99 0.99 0.0 0 1 275.65 242.08
  Q 274.41 241.65 274.05 240.84
  A 1.07 1.06 -42.4 0 1 274.10 239.86
  Q 275.32 237.80 275.51 237.23
  Q 278.81 226.89 281.45 219.34
  C 281.86 218.19 281.83 216.78 282.47 215.97
  A 0.73 0.73 0.0 0 1 283.75 216.24
  Q 285.42 222.72 285.48 222.85
  A 2.07 2.07 0.0 0 1 285.69 223.80
  Q 285.66 225.29 286.84 233.38
  Q 288.12 242.16 288.95 261.17
  A 0.67 0.66 88.8 0 1 288.29 261.87
  Z"
/>
<path fill="#f8fcfd" d="
  M 139.03 218.50
  A 2.64 2.64 0.0 0 1 136.39 221.14
  A 2.64 2.64 0.0 0 1 133.75 218.50
  A 2.64 2.64 0.0 0 1 136.39 215.86
  A 2.64 2.64 0.0 0 1 139.03 218.50
  Z"
/>
<path fill="#1a3a6b" d="
  M 193.03 217.41
  L 192.02 226.01
  A 1.34 1.34 0.0 0 1 190.69 227.19
  L 162.75 227.19
  A 1.34 1.34 0.0 0 1 161.41 225.93
  L 160.90 217.33
  A 1.34 1.34 0.0 0 1 162.23 215.91
  L 191.70 215.91
  A 1.34 1.34 0.0 0 1 193.03 217.41
  Z"
/>
<path fill="#f8fcfd" d="
  M 438.63 218.44
  A 2.65 2.65 0.0 0 1 435.98 221.09
  A 2.65 2.65 0.0 0 1 433.33 218.44
  A 2.65 2.65 0.0 0 1 435.98 215.79
  A 2.65 2.65 0.0 0 1 438.63 218.44
  Z"
/>
<path fill="#1a3a6b" d="
  M 460.94 225.83
  L 460.43 217.47
  A 1.49 1.49 0.0 0 1 461.92 215.89
  L 491.11 215.89
  A 1.49 1.49 0.0 0 1 492.59 217.55
  L 491.61 225.91
  A 1.49 1.49 0.0 0 1 490.13 227.23
  L 462.42 227.23
  A 1.49 1.49 0.0 0 1 460.94 225.83
  Z"
/>
<circle fill="#1a3a6b" cx="136.43" cy="218.47" r="1.59"/>
<circle fill="#1a3a6b" cx="435.99" cy="218.47" r="1.49"/>
<path fill="#1a3a6b" d="
  M 135.88 223.37
  C 135.76 223.38 135.60 223.39 135.49 223.37
  C 135.62 223.37 135.75 223.37 135.88 223.37
  Z"
/>
<path fill="#1a3a6b" d="
  M 437.11 223.17
  Q 437.44 223.31 437.25 223.71
  Q 436.94 224.37 435.00 223.74
  Q 434.76 223.66 434.70 223.53
  A 0.21 0.20 -1.3 0 1 434.96 223.26
  Q 436.19 223.70 436.88 223.19
  A 0.22 0.22 0.0 0 1 437.11 223.17
  Z"
/>
<path fill="#1a3a6b" d="
  M 431.55 261.46
  A 0.37 0.36 87.8 0 1 431.19 261.86
  L 427.27 261.86
  A 0.41 0.41 0.0 0 1 426.86 261.48
  L 425.54 245.27
  A 7.27 7.17 -40.4 0 1 425.75 242.86
  L 429.17 229.68
  A 1.19 1.19 0.0 0 0 428.51 228.30
  Q 426.73 227.51 426.06 224.57
  A 0.53 0.53 0.0 0 1 426.81 223.97
  Q 429.80 225.41 431.73 223.78
  A 0.89 0.88 39.6 0 1 432.74 223.69
  L 435.15 225.08
  A 0.57 0.56 -68.1 0 1 435.41 225.70
  Q 432.89 235.62 430.73 244.23
  Q 430.21 246.28 430.40 248.51
  Q 430.96 255.08 431.55 261.46
  Z"
/>
<path fill="#1a3a6b" d="
  M 439.49 261.36
  Q 440.26 255.04 441.00 248.52
  Q 441.25 246.31 440.79 244.26
  Q 438.89 235.64 436.66 225.71
  A 0.56 0.56 0.0 0 1 436.94 225.10
  L 439.37 223.79
  A 0.88 0.87 -38.0 0 1 440.38 223.90
  Q 442.25 225.58 445.26 224.23
  A 0.53 0.53 0.0 0 1 445.99 224.85
  Q 445.24 227.75 443.45 228.49
  A 1.18 1.18 0.0 0 0 442.75 229.84
  L 445.78 243.04
  A 7.23 7.13 42.0 0 1 445.92 245.44
  L 444.15 261.52
  A 0.41 0.41 0.0 0 1 443.74 261.88
  L 439.84 261.77
  A 0.37 0.36 -86.2 0 1 439.49 261.36
  Z"
/>
<path fill="#1a3a6b" d="
  M 132.02 261.46
  A 0.37 0.36 87.7 0 1 131.66 261.86
  L 127.74 261.86
  A 0.41 0.41 0.0 0 1 127.33 261.48
  L 125.99 245.26
  A 7.28 7.18 -40.5 0 1 126.20 242.84
  L 129.61 229.65
  A 1.19 1.19 0.0 0 0 128.95 228.27
  Q 127.17 227.48 126.50 224.54
  A 0.54 0.53 -83.7 0 1 127.25 223.93
  Q 130.24 225.37 132.17 223.74
  A 0.89 0.88 39.6 0 1 133.18 223.65
  L 135.60 225.04
  A 0.57 0.56 -68.2 0 1 135.86 225.66
  Q 133.34 235.59 131.19 244.21
  Q 130.67 246.26 130.86 248.50
  Q 131.43 255.07 132.02 261.46
  Z"
/>
<path fill="#1a3a6b" d="
  M 139.94 261.43
  Q 140.71 255.08 141.46 248.55
  Q 141.71 246.33 141.25 244.27
  Q 139.34 235.63 137.11 225.66
  A 0.56 0.56 0.0 0 1 137.38 225.05
  L 139.83 223.74
  A 0.88 0.87 -38.0 0 1 140.83 223.85
  Q 142.71 225.53 145.73 224.18
  A 0.53 0.53 0.0 0 1 146.46 224.80
  Q 145.71 227.71 143.91 228.45
  A 1.19 1.18 72.3 0 0 143.22 229.81
  L 146.25 243.05
  A 7.25 7.15 42.0 0 1 146.39 245.46
  L 144.62 261.58
  A 0.41 0.41 0.0 0 1 144.20 261.95
  L 140.29 261.84
  A 0.37 0.36 -86.2 0 1 139.94 261.43
  Z"
/>
<path fill="#1a3a6b" d="
  M 586.11 225.96
  Q 586.13 226.07 585.81 227.69
  Q 585.73 228.06 585.90 229.33
  Q 587.92 244.25 588.51 261.52
  A 0.32 0.32 0.0 0 1 588.19 261.85
  L 577.76 261.85
  A 0.63 0.62 0.4 0 1 577.13 261.22
  C 577.15 257.18 577.14 253.63 577.64 249.56
  Q 578.12 245.62 581.49 242.26
  C 582.94 240.81 583.91 237.01 584.25 234.13
  Q 585.05 227.46 585.54 225.93
  A 0.30 0.30 0.0 0 1 586.11 225.96
  Z"
/>
<path fill="#1a3a6b" d="
  M 135.92 261.87
  Q 134.69 261.84 133.49 261.79
  A 0.56 0.55 -1.4 0 1 132.96 261.29
  L 131.76 247.21
  A 2.20 1.92 -44.4 0 1 131.82 246.54
  Q 133.91 237.00 136.30 228.53
  Q 136.33 228.40 136.43 228.40
  Q 136.60 228.40 136.64 228.54
  Q 138.74 237.08 140.52 246.68
  A 2.20 1.92 46.3 0 1 140.55 247.35
  L 138.89 261.39
  A 0.56 0.55 3.3 0 1 138.34 261.87
  Q 137.14 261.89 135.92 261.87
  Z"
/>
<path fill="#1a3a6b" d="
  M 435.50 261.79
  Q 434.27 261.77 433.07 261.72
  A 0.56 0.55 -1.5 0 1 432.54 261.22
  L 431.32 247.13
  A 2.20 1.92 -44.5 0 1 431.37 246.46
  Q 433.45 236.92 435.82 228.44
  Q 435.85 228.30 436.03 228.31
  Q 436.12 228.31 436.16 228.44
  Q 438.28 236.99 440.08 246.59
  A 2.20 1.92 46.2 0 1 440.11 247.26
  L 438.47 261.31
  A 0.56 0.55 3.2 0 1 437.93 261.79
  Q 436.72 261.81 435.50 261.79
  Z"
/>
<path fill="#f8fcfd" d="
  M 192.76 231.35
  A 0.93 0.93 0.0 0 1 191.83 232.28
  L 161.87 232.28
  A 0.93 0.93 0.0 0 1 160.94 231.35
  L 160.94 229.91
  A 0.93 0.93 0.0 0 1 161.87 228.98
  L 191.83 228.98
  A 0.93 0.93 0.0 0 1 192.76 229.91
  L 192.76 231.35
  Z"
/>
<path fill="#f8fcfd" d="
  M 492.3311 231.2722
  A 1.03 1.03 0.0 0 1 491.3029 232.3040
  L 461.5029 232.3560
  A 1.03 1.03 0.0 0 1 460.4711 231.3278
  L 460.4689 230.0678
  A 1.03 1.03 0.0 0 1 461.4971 229.0360
  L 491.2971 228.9840
  A 1.03 1.03 0.0 0 1 492.3289 230.0122
  L 492.3311 231.2722
  Z"
/>
<rect fill="#1a3a6b" x="-14.80" y="-0.54" transform="translate(176.96,230.57) rotate(0.1)" width="29.60" height="1.08" rx="0.50"/>
<rect fill="#1a3a6b" x="-14.90" y="-0.58" transform="translate(476.28,230.56) rotate(0.1)" width="29.80" height="1.16" rx="0.26"/>
<path fill="#1a3a6b" d="
  M 176.90 239.68
  Q 171.49 239.67 171.28 239.68
  Q 169.49 239.73 169.03 240.22
  Q 167.88 241.47 168.38 242.73
  A 0.93 0.93 0.0 0 1 167.51 244.00
  L 164.09 244.00
  A 2.20 2.19 -0.2 0 1 161.89 241.82
  L 161.84 234.61
  A 0.40 0.39 4.8 0 1 162.31 234.22
  Q 162.64 234.26 176.91 234.28
  Q 191.17 234.31 191.51 234.27
  A 0.40 0.39 -4.6 0 1 191.98 234.66
  L 191.90 241.87
  A 2.20 2.19 0.4 0 1 189.69 244.04
  L 186.27 244.04
  A 0.93 0.93 0.0 0 1 185.41 242.76
  Q 185.91 241.50 184.76 240.25
  Q 184.31 239.76 182.51 239.70
  Q 182.31 239.69 176.90 239.68
  Z"
/>
<path fill="#1a3a6b" d="
  M 476.46 234.31
  Q 490.70 234.31 491.04 234.28
  A 0.40 0.39 -4.7 0 1 491.51 234.67
  L 491.44 241.87
  A 2.20 2.19 0.3 0 1 489.24 244.04
  L 485.83 244.04
  A 0.93 0.93 0.0 0 1 484.96 242.77
  Q 485.46 241.51 484.31 240.26
  Q 483.86 239.77 482.07 239.72
  Q 481.86 239.71 476.46 239.71
  Q 471.06 239.71 470.85 239.72
  Q 469.06 239.77 468.61 240.26
  Q 467.46 241.51 467.96 242.77
  A 0.93 0.93 0.0 0 1 467.09 244.04
  L 463.68 244.04
  A 2.20 2.19 -0.3 0 1 461.48 241.87
  L 461.41 234.67
  A 0.40 0.39 4.7 0 1 461.87 234.28
  Q 462.21 234.32 476.46 234.31
  Z"
/>
<path fill="#f8fcfd" d="
  M 489.29 237.50
  A 1.71 1.71 0.0 0 1 487.58 239.21
  A 1.71 1.71 0.0 0 1 485.87 237.50
  A 1.71 1.71 0.0 0 1 487.58 235.79
  A 1.71 1.71 0.0 0 1 489.29 237.50
  Z"
/>
<path fill="#f8fcfd" d="
  M 167.5648 237.2135
  A 1.76 1.60 -9.7 0 1 166.0996 239.0871
  A 1.76 1.60 -9.7 0 1 164.0952 237.8065
  A 1.76 1.60 -9.7 0 1 165.5604 235.9329
  A 1.76 1.60 -9.7 0 1 167.5648 237.2135
  Z"
/>
<path fill="#f8fcfd" d="
  M 189.68 237.56
  A 1.69 1.69 0.0 0 1 187.99 239.25
  A 1.69 1.69 0.0 0 1 186.30 237.56
  A 1.69 1.69 0.0 0 1 187.99 235.87
  A 1.69 1.69 0.0 0 1 189.68 237.56
  Z"
/>
<path fill="#f8fcfd" d="
  M 467.06 237.49
  A 1.67 1.67 0.0 0 1 465.39 239.16
  A 1.67 1.67 0.0 0 1 463.72 237.49
  A 1.67 1.67 0.0 0 1 465.39 235.82
  A 1.67 1.67 0.0 0 1 467.06 237.49
  Z"
/>
<path fill="#1a3a6b" d="
  M 166.56 237.25
  A 0.29 0.29 0.0 0 1 166.54 237.77
  Q 165.59 238.23 165.21 237.65
  A 0.46 0.44 76.6 0 1 165.62 236.95
  Q 166.17 237.03 166.56 237.25
  Z"
/>
<circle fill="#1a3a6b" cx="465.43" cy="237.53" r="0.60"/>
<path fill="#1a3a6b" d="
  M 487.99 238.18
  A 0.77 0.69 80.0 0 1 486.96 237.38
  Q 486.99 237.05 487.40 236.99
  Q 487.87 236.91 488.02 237.39
  Q 488.22 238.05 487.99 238.18
  Z"
/>
<path fill="#1a3a6b" d="
  M 188.77 237.77
  Q 188.67 238.02 188.08 238.11
  Q 187.40 238.22 187.30 237.58
  Q 187.24 237.18 187.95 237.10
  A 0.71 0.53 2.8 0 1 188.77 237.77
  Z"
/>
<path fill="#1a3a6b" d="
  M 110.45 261.76
  L 101.63 261.76
  A 0.34 0.34 0.0 0 1 101.29 261.42
  L 101.29 239.66
  A 0.34 0.34 0.0 0 1 101.63 239.32
  L 110.45 239.32
  A 0.34 0.34 0.0 0 1 110.79 239.66
  L 110.79 261.42
  A 0.34 0.34 0.0 0 1 110.45 261.76
  Z"
/>
<path fill="#1a3a6b" d="
  M 293.24 261.87
  Q 291.22 261.99 290.67 262.01
  A 0.60 0.60 0.0 0 1 290.05 261.45
  L 288.80 240.68
  A 0.34 0.34 0.0 0 1 289.26 240.34
  Q 290.80 240.94 291.97 240.87
  Q 293.15 240.80 294.60 240.02
  A 0.34 0.34 0.0 0 1 295.10 240.30
  L 296.35 261.07
  A 0.60 0.60 0.0 0 1 295.80 261.70
  Q 295.25 261.74 293.24 261.87
  Z"
/>
<path fill="#1a3a6b" d="
  M 589.05 240.31
  Q 591.40 241.58 593.66 240.16
  A 0.66 0.65 72.3 0 1 594.66 240.68
  L 595.91 261.42
  A 0.41 0.41 0.0 0 1 595.50 261.86
  L 590.03 261.86
  A 0.44 0.43 87.9 0 1 589.60 261.45
  L 588.35 240.75
  A 0.48 0.47 12.5 0 1 589.05 240.31
  Z"
/>
<path fill="#1a3a6b" d="
  M 176.89 240.74
  Q 183.06 240.74 183.22 240.75
  A 1.19 1.19 0.0 0 1 184.13 241.25
  Q 184.78 242.19 184.30 243.85
  A 1.19 1.17 -7.3 0 1 183.75 244.55
  Q 181.66 245.72 181.77 248.51
  Q 182.04 254.84 182.44 261.33
  A 0.49 0.48 89.5 0 1 181.93 261.85
  Q 179.43 261.73 176.90 261.73
  Q 174.38 261.74 171.87 261.86
  A 0.49 0.48 -89.5 0 1 171.36 261.34
  Q 171.76 254.85 172.02 248.52
  Q 172.13 245.73 170.04 244.56
  A 1.19 1.17 7.3 0 1 169.49 243.86
  Q 169.00 242.20 169.65 241.26
  A 1.19 1.19 0.0 0 1 170.56 240.75
  Q 170.72 240.75 176.89 240.74
  Z"
/>
<path fill="#1a3a6b" d="
  M 476.46 261.76
  Q 473.93 261.76 471.42 261.88
  A 0.49 0.48 -89.5 0 1 470.91 261.36
  Q 471.31 254.86 471.57 248.52
  Q 471.68 245.72 469.59 244.55
  A 1.19 1.17 7.3 0 1 469.04 243.85
  Q 468.56 242.19 469.21 241.25
  A 1.20 1.19 15.7 0 1 470.11 240.74
  Q 470.27 240.74 476.46 240.74
  Q 482.64 240.74 482.80 240.74
  A 1.20 1.19 -15.7 0 1 483.71 241.25
  Q 484.36 242.19 483.88 243.85
  A 1.19 1.17 -7.3 0 1 483.32 244.55
  Q 481.23 245.72 481.34 248.52
  Q 481.61 254.86 482.00 261.36
  A 0.49 0.48 89.5 0 1 481.49 261.88
  Q 478.98 261.76 476.46 261.76
  Z"
/>
<ellipse fill="#f8fcfd" cx="0.00" cy="0.00" transform="translate(104.78,244.72) rotate(-85.2)" rx="3.21" ry="0.27"/>
<path fill="#f8fcfd" d="
  M 404.69 241.73
  L 405.35 247.90
  A 0.24 0.24 0.0 0 1 405.07 248.16
  Q 404.49 248.08 404.59 247.15
  C 404.76 245.39 404.13 243.35 404.31 241.73
  A 0.19 0.19 0.0 0 1 404.69 241.73
  Z"
/>
<path fill="#1a3a6b" d="
  M 540.51 253.98
  Q 540.60 253.56 540.79 247.79
  Q 540.83 246.41 540.11 245.51
  Q 539.26 244.44 539.35 242.72
  A 1.25 1.25 0.0 0 1 540.60 241.53
  L 548.43 241.53
  A 0.72 0.71 -89.2 0 1 549.14 242.27
  L 548.56 261.58
  A 0.26 0.25 -0.0 0 1 548.30 261.83
  L 539.61 261.83
  A 0.36 0.36 0.0 0 1 539.25 261.47
  L 539.25 245.83
  A 0.16 0.15 -0.0 0 1 539.41 245.68
  L 539.81 245.68
  A 0.23 0.23 0.0 0 1 540.04 245.91
  L 539.87 254.22
  A 0.03 0.03 0.0 0 0 539.90 254.25
  L 540.15 254.26
  A 0.35 0.34 -82.4 0 0 540.51 253.98
  Z"
/>
<path fill="#f8fcfd" d="
  M 244.29 245.67
  Q 244.10 244.51 244.13 244.43
  A 0.27 0.27 0.0 0 1 244.63 244.41
  Q 244.98 245.27 244.76 245.74
  A 0.25 0.25 0.0 0 1 244.29 245.67
  Z"
/>
<path fill="#f8fcfd" d="
  M 108.77 246.80
  Q 107.66 245.04 107.65 245.02
  A 0.39 0.38 17.5 0 1 108.33 244.67
  Q 109.27 246.09 109.18 246.72
  A 0.23 0.22 33.2 0 1 108.77 246.80
  Z"
/>
<ellipse fill="#f8fcfd" cx="0.00" cy="0.00" transform="translate(407.95,246.42) rotate(-92.7)" rx="1.82" ry="0.46"/>
<path fill="#f8fcfd" d="
  M 543.71 247.01
  Q 543.72 248.15 543.92 249.44
  A 0.16 0.16 0.0 0 1 543.61 249.52
  Q 543.16 248.33 543.15 247.01
  Q 543.14 245.69 543.57 244.50
  A 0.16 0.16 0.0 0 1 543.88 244.57
  Q 543.70 245.86 543.71 247.01
  Z"
/>
<path fill="#f8fcfd" d="
  M 107.10 246.75
  Q 107.35 248.03 107.02 248.35
  A 0.36 0.36 0.0 0 1 106.42 248.16
  Q 106.25 247.25 106.60 246.66
  A 0.27 0.27 0.0 0 1 107.10 246.75
  Z"
/>
<path fill="#f8fcfd" d="
  M 247.62 249.55
  L 247.05 247.65
  A 0.18 0.18 0.0 0 1 247.05 247.51
  Q 247.37 246.72 247.89 246.94
  A 0.35 0.33 12.1 0 1 248.10 247.25
  L 248.10 249.48
  A 0.25 0.24 36.6 0 1 247.62 249.55
  Z"
/>
<path fill="#f8fcfd" d="
  M 546.78 247.28
  A 0.45 0.45 0.0 0 1 547.63 247.50
  L 547.63 249.26
  A 0.26 0.26 0.0 0 1 547.15 249.40
  Q 546.34 248.08 546.78 247.28
  Z"
/>
<path fill="#f8fcfd" d="
  M 545.54 247.89
  Q 545.58 247.71 545.79 247.64
  A 0.13 0.12 4.2 0 1 545.94 247.81
  Q 545.89 247.94 545.68 248.01
  A 0.11 0.11 0.0 0 1 545.54 247.89
  Z"
/>
<path fill="#f8fcfd" d="
  M 245.15 248.28
  A 0.45 0.44 -49.3 0 1 246.01 248.21
  Q 246.25 248.94 246.04 249.27
  A 0.37 0.36 -35.3 0 1 245.38 249.16
  Q 245.15 248.29 245.15 248.28
  Z"
/>
<path fill="#f8fcfd" d="
  M 243.96 248.64
  Q 243.98 248.68 243.88 249.36
  A 0.34 0.34 0.0 0 1 243.25 249.47
  Q 243.22 249.41 243.33 248.73
  A 0.33 0.33 0.0 0 1 243.96 248.64
  Z"
/>
<rect fill="#f8fcfd" x="-0.33" y="-5.15" transform="translate(109.70,254.72) rotate(-0.3)" width="0.66" height="10.30" rx="0.26"/>
<ellipse fill="#f8fcfd" cx="0.00" cy="0.00" transform="translate(408.04,254.04) rotate(-90.2)" rx="3.25" ry="0.36"/>
<path fill="#f8fcfd" d="
  M 107.30 256.89
  L 107.29 251.67
  A 0.20 0.20 0.0 0 1 107.54 251.48
  Q 108.02 251.60 107.86 252.37
  C 107.56 253.82 107.91 255.58 107.62 256.92
  A 0.16 0.16 0.0 0 1 107.30 256.89
  Z"
/>
<path fill="#f8fcfd" d="
  M 105.56 252.28
  C 105.73 253.96 105.05 256.05 105.20 257.87
  Q 105.29 258.83 104.69 258.91
  A 0.25 0.25 0.0 0 1 104.41 258.64
  L 105.17 252.28
  A 0.20 0.20 0.0 0 1 105.56 252.28
  Z"
/>
<path fill="#f8fcfd" d="
  M 404.81 252.61
  Q 405.66 255.64 404.60 258.37
  A 0.61 0.61 0.0 0 1 403.46 258.37
  Q 403.13 257.51 404.07 256.71
  A 1.50 1.49 -20.4 0 0 404.60 255.57
  L 404.60 252.63
  A 0.11 0.10 38.3 0 1 404.81 252.61
  Z"
/>
<path fill="#f8fcfd" d="
  M 546.11 259.38
  L 546.35 253.74
  A 0.22 0.22 0.0 0 1 546.63 253.55
  Q 547.14 253.70 546.93 254.52
  C 546.54 256.09 546.84 258.00 546.45 259.44
  A 0.17 0.17 0.0 0 1 546.11 259.38
  Z"
/>
<path fill="#f8fcfd" d="
  M 544.06 254.28
  A 0.19 0.19 0.0 0 1 544.45 254.26
  C 544.67 255.92 544.07 258.00 544.28 259.80
  Q 544.41 260.74 543.82 260.84
  A 0.25 0.25 0.0 0 1 543.53 260.58
  L 544.06 254.28
  Z"
/>
<path fill="#f8fcfd" d="
  M 244.29 256.15
  Q 244.05 255.73 244.15 254.86
  A 0.31 0.31 0.0 0 1 244.73 254.76
  Q 244.92 255.14 244.71 256.09
  A 0.23 0.23 0.0 0 1 244.29 256.15
  Z"
/>
<ellipse fill="#f8fcfd" cx="0.00" cy="0.00" transform="translate(102.54,258.13) rotate(-88.1)" rx="2.66" ry="0.32"/>
<ellipse fill="#f8fcfd" cx="0.00" cy="0.00" transform="translate(241.56,258.78) rotate(-90.2)" rx="1.81" ry="0.33"/>
<path fill="#f8fcfd" d="
  M 541.54 257.64
  Q 541.81 259.31 541.74 260.29
  A 0.21 0.21 0.0 0 1 541.32 260.30
  Q 541.00 257.91 541.14 257.59
  A 0.21 0.21 0.0 0 1 541.54 257.64
  Z"
/>
<path fill="#f8fcfd" d="
  M 244.05 258.73
  Q 244.42 259.56 244.66 259.74
  A 0.38 0.38 0.0 0 1 244.70 260.32
  Q 244.21 260.81 243.61 260.66
  A 0.50 0.48 -86.1 0 1 243.24 260.22
  Q 243.15 259.24 243.42 258.71
  A 0.35 0.35 0.0 0 1 244.05 258.73
  Z"
/>
<path fill="#f8fcfd" d="
  M 107.07 259.53
  Q 107.18 260.28 106.94 260.62
  A 0.37 0.37 0.0 0 1 106.30 260.54
  Q 106.21 260.31 106.60 259.46
  A 0.25 0.25 0.0 0 1 107.07 259.53
  Z"
/>
<path fill="#f8fcfd" d="
  M 248.80 259.63
  Q 248.95 259.99 248.93 260.25
  A 0.23 0.21 -62.5 0 1 248.54 260.39
  Q 248.38 260.18 248.40 259.71
  A 0.21 0.21 0.0 0 1 248.80 259.63
  Z"
/>
<ellipse fill="#f8fcfd" cx="0.00" cy="0.00" transform="translate(406.40,260.01) rotate(-90.6)" rx="0.50" ry="0.24"/>
<path fill="#f8fcfd" d="
  M 240.97 281.59
  Q 242.59 281.59 244.21 281.47
  A 0.76 0.76 0.0 0 0 244.91 280.72
  L 244.91 277.96
  A 0.85 0.82 67.6 0 1 245.14 277.38
  Q 245.72 276.74 246.26 277.48
  A 0.55 0.50 29.5 0 1 246.36 277.78
  Q 246.40 280.11 246.39 282.31
  Q 246.38 284.50 246.33 286.83
  A 0.55 0.50 -29.1 0 1 246.23 287.13
  Q 245.69 287.87 245.11 287.23
  A 0.85 0.82 -67.2 0 1 244.88 286.64
  L 244.90 283.88
  A 0.76 0.76 0.0 0 0 244.21 283.13
  Q 242.59 283.00 240.96 282.99
  Q 239.34 282.99 237.72 283.11
  A 0.76 0.76 0.0 0 0 237.02 283.86
  L 237.02 286.62
  A 0.85 0.82 67.6 0 1 236.79 287.20
  Q 236.21 287.84 235.67 287.10
  A 0.55 0.50 29.5 0 1 235.57 286.80
  Q 235.53 284.47 235.54 282.27
  Q 235.55 280.08 235.60 277.75
  A 0.55 0.50 -29.1 0 1 235.70 277.45
  Q 236.25 276.71 236.82 277.35
  A 0.85 0.82 -67.2 0 1 237.05 277.93
  L 237.03 280.69
  A 0.76 0.76 0.0 0 0 237.72 281.45
  Q 239.34 281.58 240.97 281.59
  Z"
/>
<path fill="#f8fcfd" d="
  M 258.75 285.21
  Q 255.98 285.21 255.95 285.22
  A 0.99 0.99 0.0 0 0 255.21 285.85
  Q 254.69 287.21 253.94 287.63
  A 0.58 0.58 0.0 0 1 253.12 286.90
  Q 255.11 282.30 257.46 277.69
  Q 257.78 277.07 258.72 277.07
  Q 259.68 277.06 260.00 277.69
  Q 262.38 282.28 264.39 286.87
  A 0.58 0.58 0.0 0 1 263.57 287.61
  Q 262.82 287.19 262.30 285.83
  A 0.99 0.99 0.0 0 0 261.56 285.21
  Q 261.52 285.20 258.75 285.21
  Z"
/>
<path fill="#f8fcfd" d="
  M 277.12 281.88
  Q 278.69 283.70 280.33 285.39
  A 0.26 0.26 0.0 0 0 280.77 285.21
  L 280.77 277.86
  A 0.65 0.65 0.0 0 1 281.42 277.21
  L 281.70 277.21
  A 0.58 0.58 0.0 0 1 282.28 277.79
  L 282.28 286.41
  A 1.29 1.29 0.0 0 1 280.12 287.36
  Q 279.07 286.39 276.05 282.89
  Q 274.48 281.06 272.84 279.38
  A 0.26 0.26 0.0 0 0 272.40 279.55
  L 272.40 286.90
  A 0.65 0.65 0.0 0 1 271.75 287.55
  L 271.47 287.55
  A 0.58 0.58 0.0 0 1 270.89 286.97
  L 270.89 278.35
  A 1.29 1.29 0.0 0 1 273.05 277.41
  Q 274.10 278.37 277.12 281.88
  Z"
/>
<path fill="#f8fcfd" d="
  M 313.47 281.67
  Q 313.57 281.67 313.67 281.64
  Q 313.86 281.58 313.88 281.56
  Q 316.60 278.47 317.39 277.64
  A 1.50 1.49 21.7 0 1 318.47 277.18
  L 319.00 277.18
  A 0.46 0.46 0.0 0 1 319.32 277.96
  L 314.63 282.65
  A 1.07 1.07 0.0 0 0 314.32 283.45
  Q 314.46 287.56 313.47 287.56
  Q 312.47 287.56 312.62 283.45
  A 1.07 1.07 0.0 0 0 312.31 282.65
  L 307.61 277.96
  A 0.46 0.46 0.0 0 1 307.93 277.18
  L 308.46 277.18
  A 1.50 1.49 -21.7 0 1 309.54 277.64
  Q 310.33 278.47 313.05 281.56
  Q 313.07 281.58 313.26 281.64
  Q 313.36 281.67 313.47 281.67
  Z"
/>
<path fill="#f8fcfd" d="
  M 352.77 277.07
  Q 353.72 277.07 354.04 277.68
  Q 356.41 282.23 358.42 286.78
  A 0.57 0.57 0.0 0 1 357.61 287.51
  Q 356.86 287.10 356.34 285.75
  A 0.98 0.98 0.0 0 0 355.60 285.14
  Q 355.57 285.13 352.82 285.14
  Q 350.07 285.15 350.04 285.16
  A 0.98 0.98 0.0 0 0 349.31 285.79
  Q 348.80 287.14 348.06 287.55
  A 0.57 0.57 0.0 0 1 347.24 286.83
  Q 349.20 282.27 351.53 277.70
  Q 351.84 277.08 352.77 277.07
  Z"
/>
<path fill="#f8fcfd" d="
  M 370.14 282.89
  Q 368.58 281.07 366.94 279.38
  A 0.26 0.25 23.2 0 0 366.50 279.56
  L 366.49 286.90
  A 0.65 0.65 0.0 0 1 365.84 287.55
  L 365.56 287.55
  A 0.58 0.58 0.0 0 1 364.98 286.97
  L 365.00 278.36
  A 1.29 1.29 0.0 0 1 367.15 277.42
  Q 368.20 278.38 371.21 281.89
  Q 372.78 283.71 374.41 285.40
  A 0.26 0.25 23.2 0 0 374.85 285.22
  L 374.86 277.88
  A 0.65 0.65 0.0 0 1 375.51 277.23
  L 375.79 277.23
  A 0.58 0.58 0.0 0 1 376.37 277.81
  L 376.36 286.42
  A 1.29 1.29 0.0 0 1 374.20 287.36
  Q 373.15 286.40 370.14 282.89
  Z"
/>
<path fill="#f8fcfd" d="
  M 289.54 277.86
  A 0.62 0.62 0.0 0 1 290.16 277.24
  L 297.68 277.23
  A 3.59 2.90 89.9 0 1 300.59 280.81
  L 300.59 283.89
  A 3.59 2.90 89.9 0 1 297.70 287.49
  L 290.18 287.50
  A 0.62 0.62 0.0 0 1 289.56 286.88
  L 289.54 277.86
  Z"
/>
<path fill="#f8fcfd" d="
  M 333.14 285.16
  Q 333.19 285.16 333.24 285.15
  A 0.26 0.07 -6.1 0 0 333.44 285.07
  L 337.44 277.84
  A 1.57 1.57 0.0 0 1 340.38 278.60
  L 340.38 287.02
  A 0.57 0.57 0.0 0 1 339.52 287.51
  L 339.22 287.34
  A 0.61 0.60 -75.9 0 1 338.91 286.81
  L 338.91 279.59
  A 0.29 0.29 0.0 0 0 338.37 279.44
  L 333.80 287.05
  A 1.68 1.65 86.9 0 1 333.46 287.44
  Q 333.38 287.50 333.15 287.51
  Q 332.93 287.51 332.84 287.44
  A 1.68 1.65 -87.4 0 1 332.50 287.06
  L 327.86 279.49
  A 0.29 0.29 0.0 0 0 327.32 279.64
  L 327.39 286.86
  A 0.61 0.60 75.4 0 1 327.08 287.39
  L 326.78 287.57
  A 0.57 0.57 0.0 0 1 325.92 287.08
  L 325.85 278.66
  A 1.57 1.57 0.0 0 1 328.78 277.88
  L 332.84 285.07
  A 0.26 0.07 5.6 0 0 333.04 285.15
  Q 333.09 285.16 333.14 285.16
  Z"
/>
<path fill="#1a3a6b" d="
  M 258.73 278.85
  Q 258.76 278.85 258.79 278.85
  A 0.14 0.11 -9.1 0 1 258.89 278.91
  L 260.91 283.05
  A 0.44 0.44 0.0 0 1 260.57 283.67
  Q 260.39 283.70 258.76 283.71
  Q 257.14 283.72 256.95 283.70
  A 0.44 0.44 0.0 0 1 256.60 283.08
  L 258.57 278.91
  A 0.14 0.11 8.4 0 1 258.67 278.85
  Q 258.70 278.85 258.73 278.85
  Z"
/>
<rect fill="#1a3a6b" x="-4.00" y="-3.59" transform="translate(295.03,282.36) rotate(-0.1)" width="8.00" height="7.18" rx="1.19"/>
<path fill="#1a3a6b" d="
  M 350.54 283.17
  L 352.47 279.07
  A 0.43 0.43 0.0 0 1 353.25 279.08
  L 355.12 283.20
  A 0.43 0.43 0.0 0 1 354.73 283.81
  L 350.93 283.78
  A 0.43 0.43 0.0 0 1 350.54 283.17
  Z"
/>
</svg>
